<?xml version="1.0" encoding="UTF-8" standalone="no"?><!DOCTYPE svg PUBLIC "-//W3C//DTD SVG 1.1//EN" "http://www.w3.org/Graphics/SVG/1.1/DTD/svg11.dtd"><svg width="100%" height="100%" viewBox="0 0 5496 756" version="1.1" xmlns="http://www.w3.org/2000/svg" xmlns:xlink="http://www.w3.org/1999/xlink" xml:space="preserve" xmlns:serif="http://www.serif.com/" style="fill-rule:evenodd;clip-rule:evenodd;stroke-linejoin:round;stroke-miterlimit:2;"><rect id="Page-1" serif:id="Page 1" x="0" y="0" width="5495.57" height="755.916" style="fill:none;"/><g id="znak"><path d="M2496.65,177.359c13.858,-0 24.421,2.533 31.75,7.604c7.346,5.071 11.038,12.821 11.038,23.246c-0,13 -6.417,21.833 -19.267,26.437c1.771,2.113 3.733,4.688 5.971,7.742c2.204,3.054 4.466,6.367 6.771,9.892c2.304,3.545 4.495,7.195 6.633,10.958c2.129,3.733 4.008,7.387 5.7,10.983l-19.517,0c-1.771,-3.325 -3.662,-6.675 -5.696,-10.029c-2.029,-3.383 -4.058,-6.65 -6.158,-9.837c-2.071,-3.163 -4.129,-6.163 -6.146,-8.996c-2.029,-2.809 -3.925,-5.313 -5.683,-7.521c-1.279,0.108 -2.396,0.133 -3.308,0.133l-11.067,0l-0,36.25l-17.458,0l-0,-94.504c4.254,-0.912 8.791,-1.542 13.587,-1.896c4.783,-0.312 9.075,-0.462 12.85,-0.462m1.242,15.071c-3.696,-0 -7.088,0.162 -10.221,0.408l-0,31.004l7.604,0c4.238,0 7.971,-0.229 11.2,-0.696c3.229,-0.433 5.942,-1.279 8.096,-2.479c2.154,-1.204 3.817,-2.808 4.933,-4.825c1.104,-2.046 1.634,-4.633 1.634,-7.767c-0,-2.945 -0.53,-5.441 -1.634,-7.466c-1.116,-2.034 -2.7,-3.654 -4.8,-4.838c-2.041,-1.216 -4.533,-2.071 -7.408,-2.575c-2.863,-0.491 -6,-0.766 -9.404,-0.766" style="fill:#1d1d1b;fill-rule:nonzero;"/><path d="M2609.72,213.606c-1.866,1.925 -4.266,4.662 -7.279,8.15c-2.996,3.516 -6.2,7.412 -9.616,11.721c-3.425,4.279 -6.842,8.762 -10.305,13.408c-3.462,4.658 -6.583,9.104 -9.333,13.379l37.338,0l-0,13.958l-57.546,0l-0,-10.383c2.012,-3.679 4.562,-7.7 7.6,-12.033c3.054,-4.35 6.204,-8.709 9.416,-13.1c3.23,-4.371 6.434,-8.525 9.621,-12.509c3.175,-3.966 6.025,-7.412 8.504,-10.383l-33.345,0l-0,-13.979l54.945,-0l0,11.771Z" style="fill:#1d1d1b;fill-rule:nonzero;"/><path d="M2619.67,238.37c-0,-6.363 0.942,-11.955 2.85,-16.738c1.879,-4.808 4.4,-8.775 7.508,-11.979c3.159,-3.158 6.742,-5.583 10.817,-7.192c4.062,-1.596 8.221,-2.412 12.442,-2.412c9.991,-0 17.758,3.091 23.329,9.279c5.604,6.175 8.371,15.412 8.371,27.662c-0,0.955 -0.017,1.967 -0.071,3.109c-0.054,1.171 -0.121,2.208 -0.204,3.121l-47.734,-0c0.434,5.82 2.504,10.316 6.146,13.504c3.638,3.162 8.938,4.771 15.846,4.771c4.062,-0 7.767,-0.371 11.15,-1.121c3.35,-0.738 6.008,-1.525 7.942,-2.342l2.22,13.696c-0.925,0.446 -2.191,0.95 -3.8,1.471c-1.62,0.504 -3.475,0.941 -5.52,1.375c-2.084,0.425 -4.334,0.766 -6.746,1.037c-2.384,0.271 -4.838,0.396 -7.304,0.396c-6.392,0 -11.909,-0.925 -16.609,-2.808c-4.716,-1.925 -8.587,-4.525 -11.637,-7.917c-3.042,-3.354 -5.304,-7.304 -6.775,-11.908c-1.5,-4.538 -2.221,-9.542 -2.221,-15.004m48.583,-7.484c0,-2.262 -0.341,-4.471 -0.983,-6.554c-0.642,-2.058 -1.579,-3.883 -2.821,-5.383c-1.267,-1.525 -2.779,-2.75 -4.579,-3.596c-1.788,-0.9 -3.938,-1.325 -6.417,-1.325c-2.616,-0 -4.854,0.479 -6.812,1.446c-1.925,0.966 -3.575,2.233 -4.909,3.804c-1.337,1.579 -2.37,3.379 -3.108,5.396c-0.733,2.029 -1.225,4.112 -1.525,6.212l31.154,0Z" style="fill:#1d1d1b;fill-rule:nonzero;"/><path d="M2698.68,238.109c-0,-5.342 0.833,-10.354 2.521,-15.017c1.637,-4.65 4.021,-8.708 7.087,-12.104c3.121,-3.429 6.879,-6.091 11.309,-8.037c4.445,-1.934 9.375,-2.904 14.937,-2.904c6.813,-0 13.3,1.241 19.375,3.737l-3.596,13.696c-1.937,-0.833 -4.141,-1.504 -6.566,-2.046c-2.455,-0.575 -5.059,-0.846 -7.825,-0.846c-6.555,0 -11.542,2.034 -14.963,6.146c-3.392,4.129 -5.096,9.909 -5.096,17.375c0,7.209 1.596,12.909 4.838,17.075c3.216,4.209 8.666,6.309 16.325,6.309c2.875,-0 5.671,-0.3 8.437,-0.846c2.779,-0.546 5.179,-1.255 7.209,-2.071l2.358,13.846c-1.854,0.9 -4.663,1.758 -8.383,2.496c-3.734,0.75 -7.588,1.091 -11.555,1.091c-6.2,0 -11.57,-0.946 -16.12,-2.808c-4.567,-1.925 -8.355,-4.525 -11.338,-7.921c-3,-3.35 -5.262,-7.358 -6.733,-12.046c-1.459,-4.629 -2.221,-9.7 -2.221,-15.125" style="fill:#1d1d1b;fill-rule:nonzero;"/><path d="M2818.66,213.606c-1.813,1.925 -4.267,4.662 -7.25,8.15c-3.013,3.516 -6.2,7.412 -9.621,11.721c-3.408,4.279 -6.854,8.762 -10.317,13.408c-3.445,4.658 -6.579,9.104 -9.345,13.379l37.362,0l0,13.958l-57.529,0l-0,-10.383c2,-3.679 4.521,-7.7 7.587,-12.033c3.055,-4.35 6.159,-8.709 9.417,-13.1c3.217,-4.371 6.433,-8.525 9.592,-12.509c3.216,-3.966 6.037,-7.412 8.533,-10.383l-33.375,0l0,-13.979l54.946,-0l-0,11.771Z" style="fill:#1d1d1b;fill-rule:nonzero;"/><path d="M2900.16,238.109c0,5.517 -0.696,10.604 -2.154,15.208c-1.429,4.634 -3.458,8.584 -6.146,11.909c-2.671,3.329 -6.021,5.916 -10.041,7.754c-3.992,1.854 -8.546,2.767 -13.613,2.767c-3.421,-0 -6.571,-0.404 -9.417,-1.255c-2.85,-0.816 -5.208,-1.745 -7.045,-2.766l-0,28.083l-16.746,0l-0,-95.621c3.391,-0.908 7.587,-1.779 12.575,-2.616c5.004,-0.83 10.262,-1.263 15.783,-1.263c5.721,0 10.833,0.888 15.354,2.642c4.513,1.758 8.367,4.279 11.559,7.537c3.212,3.284 5.641,7.259 7.341,11.909c1.704,4.645 2.55,9.904 2.55,15.712m-17.141,0.258c-0,-7.454 -1.675,-13.27 -5.059,-17.4c-3.362,-4.17 -8.8,-6.241 -16.254,-6.241c-1.571,-0 -3.217,0.05 -4.921,0.192c-1.704,0.133 -3.379,0.433 -5.041,0.924l-0,41.371c1.47,0.979 3.45,1.938 5.87,2.809c2.442,0.887 5.059,1.333 7.825,1.333c6.075,-0 10.546,-2.071 13.355,-6.238c2.791,-4.145 4.225,-9.716 4.225,-16.75" style="fill:#1d1d1b;fill-rule:nonzero;"/><path d="M2982.93,237.959c0,5.737 -0.829,10.941 -2.508,15.629c-1.646,4.717 -3.992,8.725 -7.029,12.062c-3.054,3.309 -6.733,5.9 -11,7.755c-4.304,1.837 -9.033,2.75 -14.2,2.75c-5.15,-0 -9.879,-0.913 -14.117,-2.75c-4.237,-1.855 -7.904,-4.446 -10.941,-7.755c-3.038,-3.337 -5.396,-7.345 -7.1,-12.062c-1.73,-4.688 -2.588,-9.892 -2.588,-15.629c0,-5.725 0.858,-10.888 2.588,-15.563c1.704,-4.662 4.087,-8.654 7.166,-11.975c3.096,-3.312 6.759,-5.879 11.042,-7.658c4.208,-1.817 8.867,-2.717 13.95,-2.717c5.083,0 9.758,0.9 14.05,2.717c4.279,1.779 7.946,4.346 10.983,7.658c3.054,3.321 5.438,7.313 7.142,11.975c1.704,4.675 2.562,9.838 2.562,15.563m-17.183,-0c0,-7.204 -1.512,-12.879 -4.621,-17.075c-3.104,-4.196 -7.412,-6.309 -12.933,-6.309c-5.546,0 -9.867,2.113 -12.958,6.309c-3.067,4.196 -4.621,9.871 -4.621,17.075c-0,7.291 1.554,13.058 4.621,17.291c3.091,4.238 7.412,6.38 12.958,6.38c5.521,-0 9.829,-2.142 12.933,-6.38c3.109,-4.233 4.621,-10 4.621,-17.291" style="fill:#1d1d1b;fill-rule:nonzero;"/><path d="M3018.34,262.173c4.442,0 7.658,-0.529 9.7,-1.579c2.017,-1.079 3.054,-2.887 3.054,-5.475c0,-2.404 -1.091,-4.362 -3.271,-5.929c-2.166,-1.596 -5.737,-3.313 -10.712,-5.142c-3.05,-1.087 -5.846,-2.275 -8.367,-3.512c-2.546,-1.254 -4.741,-2.713 -6.583,-4.363c-1.838,-1.679 -3.296,-3.691 -4.358,-6.033c-1.05,-2.363 -1.596,-5.221 -1.596,-8.642c-0,-6.637 2.441,-11.871 7.333,-15.696c4.879,-3.833 11.529,-5.754 19.938,-5.754c4.237,0 8.295,0.384 12.166,1.171c3.9,0.804 6.788,1.567 8.738,2.304l-3.071,13.546c-1.85,-0.829 -4.196,-1.596 -7.054,-2.262c-2.834,-0.709 -6.146,-1.063 -9.95,-1.063c-3.404,0 -6.188,0.575 -8.3,1.729c-2.15,1.146 -3.2,2.929 -3.2,5.329c-0,1.196 0.204,2.263 0.625,3.163c0.425,0.954 1.133,1.8 2.154,2.575c1.008,0.804 2.329,1.579 4.021,2.358c1.65,0.775 3.691,1.604 6.075,2.425c3.983,1.471 7.346,2.946 10.1,4.363c2.779,1.412 5.066,3.021 6.854,4.85c1.783,1.796 3.121,3.841 3.937,6.141c0.846,2.321 1.255,5.088 1.255,8.313c-0,6.912 -2.55,12.142 -7.688,15.717c-5.096,3.541 -12.425,5.3 -21.925,5.3c-6.362,-0 -11.5,-0.534 -15.371,-1.571c-3.871,-1.071 -6.596,-1.904 -8.175,-2.559l2.929,-13.995c2.509,1.02 5.45,2.004 8.925,2.904c3.45,0.954 7.4,1.387 11.817,1.387" style="fill:#1d1d1b;fill-rule:nonzero;"/><path d="M3128.63,238.109c-0,5.517 -0.708,10.604 -2.154,15.208c-1.404,4.634 -3.471,8.584 -6.146,11.909c-2.671,3.329 -6.033,5.916 -10.029,7.754c-4.004,1.854 -8.559,2.767 -13.625,2.767c-3.421,-0 -6.554,-0.404 -9.434,-1.255c-2.858,-0.816 -5.216,-1.745 -7.029,-2.766l0,28.083l-16.762,0l-0,-95.621c3.433,-0.908 7.604,-1.779 12.591,-2.616c5,-0.83 10.263,-1.263 15.784,-1.263c5.721,0 10.846,0.888 15.366,2.642c4.513,1.758 8.355,4.279 11.546,7.537c3.188,3.284 5.625,7.259 7.346,11.909c1.688,4.645 2.546,9.904 2.546,15.712m-17.142,0.258c0,-7.454 -1.716,-13.27 -5.058,-17.4c-3.392,-4.17 -8.775,-6.241 -16.271,-6.241c-1.579,-0 -3.212,0.05 -4.917,0.192c-1.716,0.133 -3.366,0.433 -5.029,0.924l0,41.371c1.459,0.979 3.421,1.938 5.875,2.809c2.45,0.887 5.054,1.333 7.821,1.333c6.092,-0 10.521,-2.071 13.354,-6.238c2.821,-4.145 4.225,-9.716 4.225,-16.75" style="fill:#1d1d1b;fill-rule:nonzero;"/><path d="M3211.4,237.959c-0,5.737 -0.833,10.941 -2.496,15.629c-1.662,4.717 -4.004,8.725 -7.058,12.062c-3.067,3.309 -6.704,5.9 -11.009,7.755c-4.279,1.837 -9.008,2.75 -14.175,2.75c-5.175,-0 -9.879,-0.913 -14.116,-2.75c-4.238,-1.855 -7.888,-4.446 -10.942,-7.755c-3.037,-3.337 -5.396,-7.345 -7.1,-12.062c-1.733,-4.688 -2.592,-9.892 -2.592,-15.629c0,-5.725 0.859,-10.888 2.592,-15.563c1.704,-4.662 4.088,-8.654 7.196,-11.975c3.067,-3.312 6.746,-5.879 10.954,-7.658c4.267,-1.817 8.942,-2.717 14.008,-2.717c5.042,0 9.759,0.9 14.05,2.717c4.267,1.779 7.946,4.346 10.984,7.658c3.079,3.321 5.425,7.313 7.129,11.975c1.717,4.675 2.575,9.838 2.575,15.563m-17.158,-0c-0,-7.204 -1.567,-12.879 -4.646,-17.075c-3.092,-4.196 -7.413,-6.309 -12.934,-6.309c-5.545,0 -9.866,2.113 -12.958,6.309c-3.092,4.196 -4.621,9.871 -4.621,17.075c0,7.291 1.529,13.058 4.621,17.291c3.092,4.238 7.413,6.38 12.958,6.38c5.521,-0 9.842,-2.142 12.934,-6.38c3.079,-4.233 4.646,-10 4.646,-17.291" style="fill:#1d1d1b;fill-rule:nonzero;"/><path d="M3253.87,275.597c-4.987,-0.092 -9.104,-0.654 -12.375,-1.65c-3.283,-1.037 -5.9,-2.45 -7.833,-4.358c-1.921,-1.884 -3.3,-4.238 -4.063,-7.046c-0.791,-2.846 -1.171,-6.05 -1.171,-9.633l0,-70.863l16.734,-2.779l-0,70.467c-0,2 0.162,3.729 0.479,5.108c0.325,1.392 0.883,2.562 1.742,3.542c0.816,0.958 1.933,1.716 3.366,2.195c1.429,0.521 3.259,0.913 5.463,1.171l-2.342,13.846Z" style="fill:#1d1d1b;fill-rule:nonzero;"/><path d="M3288.46,180.683c-0,3.138 -1.009,5.617 -3.038,7.467c-2.033,1.854 -4.441,2.754 -7.196,2.754c-2.85,0 -5.3,-0.9 -7.316,-2.754c-2.034,-1.85 -3.054,-4.329 -3.054,-7.467c-0,-3.241 1.02,-5.779 3.054,-7.616c2.016,-1.85 4.466,-2.767 7.316,-2.767c2.755,0 5.163,0.917 7.196,2.767c2.029,1.837 3.038,4.375 3.038,7.616m-1.813,93.525l-16.721,0l0,-72.375l16.721,0l0,72.375Z" style="fill:#1d1d1b;fill-rule:nonzero;"/><path d="M3307.15,182.046l16.762,-2.779l0,22.567l25.729,-0l0.001,14.008l-25.73,0l0,29.463c0,5.804 0.9,9.975 2.75,12.441c1.842,2.496 4.988,3.746 9.417,3.746c3.042,0 5.737,-0.329 8.096,-0.967c2.358,-0.637 4.225,-1.254 5.6,-1.812l2.779,13.3c-1.946,0.833 -4.496,1.692 -7.629,2.546c-3.133,0.887 -6.842,1.325 -11.067,1.325c-5.162,-0 -9.483,-0.696 -12.929,-2.075c-3.463,-1.388 -6.217,-3.392 -8.246,-6.021c-2.046,-2.629 -3.45,-5.829 -4.266,-9.567c-0.859,-3.729 -1.267,-7.971 -1.267,-12.779l-0,-63.396Z" style="fill:#1d1d1b;fill-rule:nonzero;"/><path d="M3389.89,200.048c5.546,-0 10.192,0.696 13.979,2.071c3.792,1.379 6.817,3.312 9.063,5.791c2.262,2.509 3.887,5.534 4.854,9.088c0.967,3.558 1.446,7.442 1.446,11.708l-0,43.85c-2.579,0.546 -6.475,1.213 -11.684,2.021c-5.229,0.763 -11.104,1.171 -17.658,1.171c-4.321,-0 -8.287,-0.408 -11.883,-1.242c-3.596,-0.858 -6.675,-2.162 -9.213,-4.021c-2.533,-1.85 -4.525,-4.25 -5.941,-7.191c-1.446,-2.959 -2.15,-6.609 -2.15,-10.942c-0,-4.129 0.816,-7.646 2.408,-10.508c1.625,-2.863 3.817,-5.209 6.596,-7.004c2.766,-1.771 5.971,-3.084 9.608,-3.871c3.654,-0.763 7.442,-1.171 11.433,-1.171c1.813,-0 3.763,0.108 5.792,0.354c2.017,0.217 4.196,0.613 6.5,1.171l0,-2.779c0,-1.938 -0.217,-3.775 -0.696,-5.504c-0.462,-1.771 -1.237,-3.325 -2.425,-4.663c-1.146,-1.337 -2.671,-2.371 -4.55,-3.108c-1.896,-0.734 -4.266,-1.117 -7.129,-1.117c-3.854,0 -7.425,0.3 -10.671,0.846c-3.212,0.546 -5.846,1.2 -7.862,1.937l-2.096,-13.562c2.112,-0.738 5.217,-1.458 9.279,-2.204c4.058,-0.75 8.392,-1.121 13,-1.121m1.404,62.412c5.15,0 9.075,-0.287 11.746,-0.833l0,-18.558c-0.925,-0.259 -2.275,-0.517 -4.021,-0.817c-1.758,-0.275 -3.679,-0.408 -5.804,-0.408c-1.825,-0 -3.696,0.133 -5.6,0.408c-1.883,0.3 -3.583,0.775 -5.137,1.525c-1.5,0.738 -2.713,1.771 -3.638,3.108c-0.942,1.346 -1.392,3.025 -1.392,5.067c0,3.954 1.255,6.683 3.734,8.221c2.479,1.525 5.846,2.287 10.112,2.287" style="fill:#1d1d1b;fill-rule:nonzero;"/><path d="M2497.34,305.669c13.929,0 24.583,2.521 32.025,7.592c7.437,5.087 11.133,13.012 11.133,23.804c-0,5.65 -1.008,10.458 -2.958,14.479c-2.005,4.004 -4.88,7.292 -8.638,9.804c-3.787,2.567 -8.396,4.405 -13.833,5.617c-5.479,1.213 -11.692,1.792 -18.709,1.792l-8.737,-0l-0,33.762l-17.413,0l0,-94.508c4.046,-0.908 8.555,-1.546 13.488,-1.863c4.933,-0.316 9.487,-0.479 13.642,-0.479m1.241,15.071c-4.416,0 -8.071,0.137 -10.958,0.417l-0,32.675l8.475,-0c8.383,-0 14.842,-1.175 19.367,-3.542c4.537,-2.346 6.8,-6.821 6.8,-13.354c-0,-3.133 -0.613,-5.754 -1.825,-7.879c-1.175,-2.121 -2.863,-3.792 -4.975,-4.988c-2.125,-1.196 -4.634,-2.058 -7.55,-2.579c-2.917,-0.471 -6.021,-0.75 -9.334,-0.75" style="fill:#1d1d1b;fill-rule:nonzero;"/><path d="M2618.55,366.273c-0,5.696 -0.817,10.946 -2.492,15.633c-1.65,4.713 -3.996,8.717 -7.046,12.046c-3.025,3.317 -6.704,5.9 -11.012,7.754c-4.292,1.846 -9.021,2.75 -14.184,2.75c-5.179,0 -9.896,-0.904 -14.104,-2.75c-4.267,-1.854 -7.904,-4.437 -10.929,-7.754c-3.054,-3.329 -5.438,-7.333 -7.154,-12.046c-1.692,-4.687 -2.55,-9.937 -2.55,-15.633c-0,-5.721 0.858,-10.913 2.55,-15.55c1.716,-4.688 4.129,-8.654 7.208,-11.988c3.092,-3.329 6.758,-5.891 11.025,-7.691c4.238,-1.8 8.871,-2.696 13.954,-2.696c5.096,-0 9.754,0.896 14.046,2.696c4.296,1.8 7.958,4.362 11,7.691c3.038,3.334 5.438,7.3 7.125,11.988c1.717,4.637 2.563,9.829 2.563,15.55m-17.155,-0c0,-7.188 -1.541,-12.883 -4.633,-17.092c-3.096,-4.196 -7.412,-6.279 -12.946,-6.279c-5.521,0 -9.841,2.083 -12.933,6.279c-3.092,4.209 -4.633,9.904 -4.633,17.092c-0,7.292 1.541,13.054 4.633,17.308c3.092,4.225 7.412,6.367 12.933,6.367c5.534,-0 9.85,-2.142 12.946,-6.367c3.092,-4.254 4.633,-10.016 4.633,-17.308" style="fill:#1d1d1b;fill-rule:nonzero;"/><path d="M2661.05,403.895c-4.988,-0.096 -9.1,-0.65 -12.388,-1.621c-3.271,-1.05 -5.887,-2.479 -7.837,-4.375c-1.917,-1.892 -3.284,-4.25 -4.071,-7.075c-0.779,-2.808 -1.188,-6.021 -1.188,-9.617l0,-70.679l16.775,-2.783l0,70.288c0,2.024 0.167,3.733 0.479,5.112c0.325,1.396 0.884,2.563 1.73,3.537c0.845,0.971 1.95,1.709 3.391,2.238c1.409,0.488 3.234,0.887 5.467,1.158l-2.358,13.817Z" style="fill:#1d1d1b;fill-rule:nonzero;"/><path d="M2695.07,390.483c4.441,0 7.671,-0.529 9.704,-1.562c2.029,-1.108 3.037,-2.913 3.037,-5.475c0,-2.421 -1.091,-4.388 -3.258,-5.975c-2.15,-1.554 -5.75,-3.254 -10.708,-5.113c-3.042,-1.112 -5.846,-2.283 -8.367,-3.52c-2.579,-1.246 -4.729,-2.705 -6.583,-4.346c-1.867,-1.671 -3.296,-3.688 -4.363,-6.038c-1.046,-2.362 -1.579,-5.233 -1.579,-8.662c0,-6.617 2.425,-11.879 7.317,-15.679c4.921,-3.825 11.541,-5.763 19.912,-5.763c4.263,0 8.325,0.408 12.209,1.171c3.883,0.804 6.77,1.579 8.72,2.304l-3.066,13.558c-1.838,-0.845 -4.196,-1.579 -7.029,-2.262c-2.892,-0.708 -6.205,-1.05 -9.975,-1.05c-3.409,-0 -6.188,0.571 -8.313,1.733c-2.112,1.138 -3.162,2.913 -3.162,5.313c-0,1.196 0.191,2.262 0.6,3.175c0.42,0.929 1.116,1.783 2.15,2.546c0.995,0.816 2.345,1.595 3.995,2.362c1.688,0.796 3.721,1.6 6.117,2.433c3.967,1.471 7.321,2.93 10.113,4.363c2.754,1.412 5.029,3.042 6.854,4.841c1.771,1.796 3.104,3.855 3.925,6.142c0.816,2.329 1.237,5.096 1.237,8.342c0,6.908 -2.546,12.125 -7.683,15.683c-5.125,3.542 -12.429,5.313 -21.942,5.313c-6.35,-0 -11.446,-0.529 -15.329,-1.579c-3.896,-1.063 -6.608,-1.913 -8.175,-2.563l2.9,-13.979c2.496,1.008 5.479,1.975 8.9,2.912c3.475,0.93 7.413,1.375 11.842,1.375" style="fill:#1d1d1b;fill-rule:nonzero;"/><path d="M2756.93,358.379c2.125,-2.187 4.388,-4.575 6.788,-7.121c2.396,-2.537 4.783,-5.071 7.071,-7.616c2.291,-2.538 4.496,-4.988 6.596,-7.334c2.041,-2.341 3.829,-4.396 5.316,-6.158l19.759,-0c-4.58,5.175 -9.417,10.521 -14.542,16.079c-5.096,5.517 -10.246,10.929 -15.413,16.171c2.78,2.304 5.684,5.087 8.709,8.367c3.037,3.27 5.996,6.779 8.858,10.454c2.833,3.696 5.517,7.383 7.996,11.079c2.483,3.692 4.525,7.104 6.217,10.237l-19.405,0c-1.65,-2.883 -3.558,-5.862 -5.725,-8.995c-2.166,-3.146 -4.495,-6.192 -6.991,-9.163c-2.492,-2.929 -5.042,-5.704 -7.617,-8.35c-2.587,-2.642 -5.096,-4.867 -7.617,-6.721l0,33.229l-16.762,0l-0,-92.008l16.762,-2.783l0,50.633Z" style="fill:#1d1d1b;fill-rule:nonzero;"/><path d="M2840.53,328.35c5.546,-0 10.179,0.708 13.967,2.066c3.804,1.409 6.787,3.354 9.079,5.834c2.246,2.491 3.854,5.504 4.838,9.05c0.979,3.558 1.458,7.454 1.458,11.704l-0,43.879c-2.579,0.529 -6.488,1.229 -11.696,1.996c-5.246,0.787 -11.104,1.179 -17.646,1.179c-4.333,-0 -8.3,-0.425 -11.908,-1.238c-3.588,-0.845 -6.679,-2.195 -9.2,-4.037c-2.521,-1.846 -4.538,-4.221 -5.954,-7.192c-1.434,-2.946 -2.125,-6.591 -2.125,-10.937c-0,-4.134 0.791,-7.634 2.396,-10.517c1.608,-2.854 3.829,-5.175 6.583,-6.975c2.767,-1.812 5.954,-3.092 9.621,-3.879c3.637,-0.792 7.429,-1.171 11.404,-1.171c1.829,0 3.792,0.121 5.808,0.35c2.029,0.217 4.196,0.625 6.525,1.171l0,-2.792c0,-1.937 -0.229,-3.775 -0.708,-5.5c-0.463,-1.775 -1.254,-3.287 -2.413,-4.65c-1.17,-1.333 -2.67,-2.383 -4.579,-3.125c-1.879,-0.729 -4.262,-1.087 -7.125,-1.087c-3.871,-0 -7.412,0.258 -10.658,0.829c-3.213,0.546 -5.846,1.204 -7.875,1.937l-2.083,-13.575c2.125,-0.733 5.216,-1.475 9.291,-2.204c4.063,-0.733 8.367,-1.116 13,-1.116m1.392,62.433c5.15,-0 9.046,-0.3 11.758,-0.838l0,-18.545c-0.941,-0.292 -2.262,-0.546 -4.033,-0.838c-1.758,-0.283 -3.692,-0.425 -5.817,-0.425c-1.841,0 -3.696,0.142 -5.575,0.425c-1.908,0.292 -3.612,0.779 -5.15,1.513c-1.512,0.75 -2.725,1.8 -3.666,3.125c-0.913,1.341 -1.375,3.02 -1.375,5.054c-0,3.954 1.237,6.704 3.758,8.229c2.454,1.512 5.846,2.3 10.1,2.3" style="fill:#1d1d1b;fill-rule:nonzero;"/><rect x="1775.34" y="287.383" width="568.688" height="189.6" style="fill:#b51f2b;"/><path d="M2342.25,475.167l-565.129,-0l0,-375.563l565.129,0l0,375.563Zm1.771,-377.363l-568.687,0l-0,379.175l568.687,0l0,-379.175Z" style="fill:#878787;fill-rule:nonzero;"/><path d="M484.827,523.117l-252.042,-47.25l-0,-377.996l252.042,-78.754l-0,504Z" style="fill:#144194;fill-rule:nonzero;"/><path d="M232.841,385.023l0,-98.146c12.675,3.458 26.8,5.088 36.104,-0.546c20.367,-12.141 51.188,-49.316 51.188,-49.316c-0,-0 -16.25,40.108 -10.125,54.829c6.487,15.616 45,16.462 45,16.462c-0,0 -43.538,26.463 -63.8,44.009c-20.854,17.904 -35.317,83.7 -35.317,83.7c0,-0 -10.104,-42.18 -23.05,-50.992" style="fill:#ffed00;fill-rule:nonzero;"/><path d="M484.827,211.88c-8.721,5.5 -17.267,9.817 -23.713,11.063c-20.233,3.917 -41.912,-19.35 -41.912,-19.35c-0,-0 5.091,34.025 -7.654,54.971c-13.409,22.087 -56.53,49.733 -56.53,49.733c0,0 47.671,-9.229 56.934,5.558c9.862,15.863 11.175,71.088 11.175,71.088c-0,-0 24.283,-66.308 46.329,-75.333c4.279,-1.834 9.641,-3.525 15.371,-5.155l-0,-92.575Z" style="fill:#e30613;fill-rule:nonzero;"/><path d="M320.135,237.015c0,-0 24.35,-38.163 22.888,-51.742c-1.438,-12.9 -26.705,-17.538 -26.705,-17.538c0,0 33.071,-8.125 47.505,-21.104c13.908,-12.521 26.083,-38.512 26.083,-38.512c-0,-0 3.062,21.508 15.437,24.583c12.775,3.221 46.888,-10.55 46.888,-10.55c-0,0 -26.921,25.475 -37.5,39.363c-11.038,14.491 4.471,42.079 4.471,42.079c-0,-0 -28.588,-9.942 -44.571,-6.946c-15.738,2.975 -54.496,40.367 -54.496,40.367" style="fill:#fff;fill-rule:nonzero;"/><path d="M610.766,208.125l-0,-94.525l59.737,-0l0,14.575l-42.545,-0l-0,24.154l37.77,-0l0,14.6l-37.77,-0l-0,41.196l-17.192,-0Z" style="fill:#1d1d1b;fill-rule:nonzero;"/><path d="M739.805,204.438c-3.188,0.804 -7.317,1.659 -12.417,2.517c-5.088,0.875 -10.692,1.292 -16.779,1.292c-5.725,-0 -10.529,-0.805 -14.388,-2.442c-3.866,-1.633 -6.954,-3.929 -9.279,-6.838c-2.312,-2.908 -3.975,-6.375 -4.975,-10.42c-1.004,-4.055 -1.504,-8.48 -1.504,-13.288l-0,-39.979l16.504,-0l0,37.362c0,7.646 1.117,13.096 3.338,16.367c2.241,3.292 6.133,4.925 11.666,4.925c2.004,0 4.117,-0.096 6.35,-0.292c2.229,-0.17 3.875,-0.391 4.979,-0.683l0,-57.679l16.505,-0l-0,69.158Z" style="fill:#1d1d1b;fill-rule:nonzero;"/><path d="M759.988,139.094c3.187,-0.908 7.312,-1.762 12.417,-2.591c5.083,-0.83 10.725,-1.221 16.916,-1.221c5.813,-0 10.679,0.779 14.592,2.366c3.912,1.617 7.025,3.838 9.333,6.696c2.325,2.883 3.967,6.325 4.917,10.379c0.95,4.05 1.437,8.467 1.437,13.304l0,40.096l-16.504,0l0,-37.508c0,-3.829 -0.266,-7.083 -0.746,-9.767c-0.5,-2.687 -1.325,-4.854 -2.466,-6.541c-1.138,-1.684 -2.675,-2.904 -4.642,-3.684c-1.946,-0.758 -4.333,-1.15 -7.15,-1.15c-2.1,0 -4.275,0.125 -6.55,0.417c-2.275,0.242 -3.95,0.488 -5.054,0.658l-0,57.575l-16.5,0l-0,-69.029Z" style="fill:#1d1d1b;fill-rule:nonzero;"/><path d="M899.251,204.292c-3.275,1 -7.388,1.904 -12.35,2.733c-4.95,0.808 -10.15,1.221 -15.613,1.221c-5.645,-0 -10.679,-0.854 -15.133,-2.588c-4.467,-1.733 -8.25,-4.2 -11.392,-7.425c-3.137,-3.225 -5.545,-7.158 -7.237,-11.737c-1.671,-4.596 -2.529,-9.746 -2.529,-15.488c-0,-5.616 0.704,-10.745 2.129,-15.333c1.412,-4.592 3.475,-8.525 6.2,-11.821c2.729,-3.271 6.042,-5.792 9.958,-7.546c3.909,-1.783 8.413,-2.662 13.509,-2.662c3.454,-0 6.487,0.416 9.125,1.221c2.645,0.829 4.916,1.733 6.833,2.733l-0,-21.288l16.5,-2.712l-0,90.692Zm-47.338,-33.675c0,7.254 1.742,12.97 5.192,17.12c3.45,4.125 8.229,6.2 14.317,6.2c2.633,0 4.887,-0.125 6.75,-0.341c1.862,-0.246 3.387,-0.492 4.579,-0.758l-0,-40.921c-1.467,-1.004 -3.388,-1.929 -5.808,-2.784c-2.409,-0.879 -4.971,-1.296 -7.696,-1.296c-6,0 -10.392,2.025 -13.171,6.13c-2.767,4.095 -4.163,9.637 -4.163,16.65" style="fill:#1d1d1b;fill-rule:nonzero;"/><path d="M977.95,204.438c-3.175,0.804 -7.313,1.659 -12.417,2.517c-5.088,0.875 -10.679,1.292 -16.763,1.292c-5.741,-0 -10.525,-0.805 -14.391,-2.442c-3.863,-1.633 -6.967,-3.929 -9.279,-6.838c-2.325,-2.908 -3.988,-6.375 -4.975,-10.42c-1.013,-4.055 -1.5,-8.48 -1.5,-13.288l-0,-39.979l16.491,-0l0,37.362c0,7.646 1.125,13.096 3.35,16.367c2.225,3.292 6.113,4.925 11.654,4.925c2.013,0 4.125,-0.096 6.355,-0.292c2.22,-0.17 3.879,-0.391 4.975,-0.683l-0,-57.679l16.5,-0l-0,69.158Z" style="fill:#1d1d1b;fill-rule:nonzero;"/><path d="M1016.01,194.595c4.367,0 7.55,-0.512 9.554,-1.562c1.996,-1.05 2.988,-2.829 2.988,-5.367c-0,-2.366 -1.063,-4.321 -3.2,-5.862c-2.138,-1.563 -5.667,-3.25 -10.583,-5.054c-2.984,-1.1 -5.75,-2.246 -8.234,-3.471c-2.504,-1.246 -4.666,-2.688 -6.487,-4.321c-1.817,-1.638 -3.259,-3.617 -4.296,-5.913c-1.05,-2.345 -1.571,-5.175 -1.571,-8.541c0,-6.542 2.417,-11.7 7.238,-15.459c4.816,-3.787 11.354,-5.666 19.637,-5.666c4.183,-0 8.183,0.387 12.013,1.146c3.808,0.783 6.67,1.512 8.587,2.245l-3.004,13.363c-1.813,-0.804 -4.138,-1.563 -6.967,-2.221c-2.812,-0.712 -6.083,-1.029 -9.808,-1.029c-3.367,-0 -6.092,0.567 -8.192,1.687c-2.091,1.146 -3.141,2.905 -3.141,5.25c-0,1.196 0.216,2.246 0.612,3.146c0.429,0.904 1.129,1.759 2.129,2.513c0.996,0.783 2.317,1.537 3.95,2.321c1.638,0.779 3.638,1.587 6.004,2.391c3.909,1.471 7.226,2.888 9.963,4.3c2.729,1.392 4.962,3.004 6.75,4.788c1.767,1.762 3.067,3.787 3.892,6.058c0.812,2.271 1.225,5.008 1.225,8.183c-0,6.809 -2.525,11.984 -7.575,15.48c-5.054,3.487 -12.255,5.245 -21.617,5.245c-6.283,0 -11.333,-0.512 -15.146,-1.562c-3.825,-1.05 -6.504,-1.904 -8.05,-2.513l2.867,-13.795c2.458,0.995 5.383,1.95 8.796,2.879c3.412,0.904 7.3,1.341 11.666,1.341" style="fill:#1d1d1b;fill-rule:nonzero;"/><path d="M1109.57,148.375c-1.825,1.905 -4.213,4.592 -7.163,8.055c-2.966,3.441 -6.117,7.3 -9.479,11.5c-3.375,4.25 -6.763,8.67 -10.167,13.237c-3.408,4.596 -6.475,8.988 -9.2,13.158l36.821,0l0,13.775l-56.737,0l-0,-10.208c2,-3.637 4.504,-7.587 7.5,-11.862c3.004,-4.275 6.091,-8.575 9.279,-12.9c3.187,-4.321 6.337,-8.425 9.475,-12.355c3.137,-3.908 5.942,-7.32 8.387,-10.229l-32.866,0l-0,-13.775l54.15,0l-0,11.604Z" style="fill:#1d1d1b;fill-rule:nonzero;"/><path d="M1118.58,171.154c0,-6.279 0.929,-11.771 2.792,-16.504c1.862,-4.738 4.333,-8.671 7.433,-11.796c3.092,-3.15 6.642,-5.521 10.642,-7.109c4.004,-1.587 8.087,-2.366 12.262,-2.366c9.83,-0 17.48,3.025 23,9.133c5.5,6.083 8.246,15.188 8.246,27.275c0,0.904 -0.021,1.929 -0.058,3.05c-0.05,1.179 -0.129,2.179 -0.217,3.083l-47.062,0c0.454,5.738 2.491,10.184 6.079,13.309c3.592,3.121 8.808,4.708 15.617,4.708c4,0 7.654,-0.367 10.979,-1.1c3.325,-0.733 5.941,-1.492 7.837,-2.317l2.188,13.505c-0.913,0.462 -2.163,0.925 -3.75,1.437c-1.588,0.492 -3.413,0.954 -5.45,1.371c-2.054,0.387 -4.263,0.729 -6.613,1c-2.375,0.292 -4.779,0.412 -7.241,0.412c-6.275,0 -11.725,-0.925 -16.367,-2.783c-4.642,-1.879 -8.446,-4.467 -11.454,-7.792c-2.996,-3.32 -5.225,-7.22 -6.688,-11.712c-1.45,-4.496 -2.175,-9.454 -2.175,-14.804m47.875,-7.379c0,-2.267 -0.325,-4.417 -0.962,-6.467c-0.638,-2.046 -1.567,-3.829 -2.792,-5.321c-1.221,-1.512 -2.725,-2.683 -4.5,-3.537c-1.775,-0.855 -3.887,-1.3 -6.337,-1.3c-2.555,-0 -4.78,0.47 -6.692,1.42c-1.908,0.975 -3.521,2.221 -4.833,3.759c-1.33,1.541 -2.35,3.321 -3.08,5.321c-0.725,2 -1.225,4.05 -1.5,6.125l30.696,-0Z" style="fill:#1d1d1b;fill-rule:nonzero;"/><path d="M610.766,334.103l-0,-94.525l60.7,0l-0,14.609l-43.508,-0l-0,23.341l38.733,0l-0,14.313l-38.733,-0l-0,27.687l46.787,0l-0,14.575l-63.979,0Z" style="fill:#1d1d1b;fill-rule:nonzero;"/><path d="M745.256,330.441c-3.188,0.804 -7.313,1.659 -12.417,2.517c-5.087,0.875 -10.692,1.292 -16.775,1.292c-5.729,-0 -10.525,-0.805 -14.392,-2.442c-3.862,-1.658 -6.954,-3.921 -9.279,-6.829c-2.312,-2.913 -3.975,-6.404 -4.975,-10.429c-1,-4.055 -1.504,-8.484 -1.504,-13.317l0,-39.95l16.509,-0l-0,37.362c-0,7.65 1.125,13.096 3.337,16.367c2.238,3.296 6.125,4.929 11.663,4.929c2.016,0 4.129,-0.096 6.354,-0.291c2.225,-0.171 3.87,-0.392 4.979,-0.684l-0,-57.683l16.5,-0l-0,69.158Z" style="fill:#1d1d1b;fill-rule:nonzero;"/><path d="M806.091,277.65c-1.363,-0.438 -3.25,-0.929 -5.663,-1.417c-2.412,-0.512 -5.204,-0.779 -8.391,-0.779c-1.825,0 -3.746,0.196 -5.788,0.558c-2.05,0.367 -3.492,0.684 -4.304,0.955l-0,57.162l-16.5,0l-0,-67.958c3.175,-1.175 7.162,-2.271 11.942,-3.321c4.762,-1.054 10.058,-1.567 15.887,-1.567c1.088,0 2.367,0.046 3.813,0.196c1.454,0.146 2.916,0.317 4.362,0.558c1.454,0.225 2.867,0.496 4.225,0.813c1.371,0.317 2.471,0.608 3.279,0.879l-2.862,13.921Z" style="fill:#1d1d1b;fill-rule:nonzero;"/><path d="M884.105,296.595c0,5.642 -0.812,10.775 -2.45,15.412c-1.641,4.663 -3.945,8.621 -6.95,11.892c-3.004,3.254 -6.612,5.817 -10.858,7.617c-4.221,1.829 -8.887,2.733 -13.971,2.733c-5.091,0 -9.733,-0.904 -13.921,-2.733c-4.187,-1.8 -7.775,-4.363 -10.762,-7.617c-3.017,-3.271 -5.354,-7.229 -7.025,-11.892c-1.692,-4.637 -2.529,-9.77 -2.529,-15.412c-0,-5.608 0.837,-10.742 2.529,-15.333c1.671,-4.588 4.033,-8.521 7.087,-11.796c3.05,-3.271 6.667,-5.813 10.842,-7.575c4.188,-1.771 8.771,-2.65 13.779,-2.65c5,-0 9.613,0.879 13.838,2.65c4.237,1.762 7.854,4.304 10.85,7.575c3.004,3.275 5.341,7.208 7.012,11.796c1.692,4.591 2.529,9.725 2.529,15.333m-16.916,-0c-0,-7.071 -1.513,-12.696 -4.563,-16.846c-3.05,-4.125 -7.287,-6.2 -12.75,-6.2c-5.45,0 -9.708,2.075 -12.754,6.2c-3.05,4.15 -4.579,9.775 -4.579,16.846c-0,7.204 1.529,12.875 4.579,17.05c3.046,4.2 7.304,6.275 12.754,6.275c5.463,-0 9.7,-2.075 12.75,-6.275c3.05,-4.175 4.563,-9.846 4.563,-17.05" style="fill:#1d1d1b;fill-rule:nonzero;"/><path d="M964.587,298.524c-0,5.446 -0.713,10.458 -2.113,15c-1.412,4.537 -3.437,8.446 -6.075,11.725c-2.637,3.271 -5.925,5.825 -9.887,7.658c-3.959,1.808 -8.434,2.708 -13.446,2.708c-3.363,0 -6.454,-0.412 -9.267,-1.22c-2.808,-0.83 -5.133,-1.734 -6.946,-2.734l0,27.704l-16.508,0l0,-94.27c3.35,-0.905 7.492,-1.759 12.404,-2.588c4.917,-0.808 10.104,-1.225 15.554,-1.225c5.638,0 10.692,0.854 15.142,2.592c4.463,1.733 8.254,4.2 11.392,7.425c3.137,3.25 5.55,7.158 7.221,11.746c1.691,4.591 2.529,9.75 2.529,15.479m-16.917,0.266c0,-7.362 -1.658,-13.083 -4.975,-17.187c-3.325,-4.1 -8.662,-6.15 -16.033,-6.15c-1.546,-0 -3.163,0.071 -4.834,0.221c-1.691,0.146 -3.354,0.437 -4.975,0.879l0,40.779c1.446,1 3.388,1.929 5.788,2.804c2.408,0.859 4.975,1.296 7.717,1.296c6,0 10.37,-2.05 13.15,-6.129c2.775,-4.1 4.162,-9.6 4.162,-16.513" style="fill:#1d1d1b;fill-rule:nonzero;"/><path d="M976.865,297.157c-0,-6.267 0.925,-11.792 2.8,-16.504c1.862,-4.738 4.337,-8.671 7.425,-11.796c3.087,-3.15 6.641,-5.521 10.641,-7.113c4,-1.575 8.088,-2.383 12.275,-2.383c9.829,-0 17.479,3.05 22.979,9.15c5.509,6.087 8.255,15.192 8.255,27.279c-0,0.904 -0.025,1.929 -0.063,3.05c-0.046,1.15 -0.117,2.175 -0.212,3.079l-47.05,0c0.45,5.742 2.479,10.188 6.066,13.313c3.592,3.125 8.804,4.712 15.617,4.712c4,0 7.662,-0.366 10.992,-1.1c3.312,-0.733 5.925,-1.512 7.837,-2.321l2.175,13.505c-0.9,0.462 -2.162,0.925 -3.75,1.437c-1.587,0.492 -3.404,0.954 -5.45,1.346c-2.054,0.412 -4.25,0.754 -6.617,1.025c-2.362,0.292 -4.775,0.412 -7.237,0.412c-6.263,0 -11.717,-0.925 -16.367,-2.783c-4.637,-1.871 -8.45,-4.458 -11.454,-7.787c-2.996,-3.321 -5.225,-7.225 -6.692,-11.717c-1.445,-4.492 -2.17,-9.458 -2.17,-14.804m47.875,-7.367c-0,-2.275 -0.313,-4.45 -0.955,-6.475c-0.633,-2.05 -1.575,-3.833 -2.804,-5.325c-1.216,-1.512 -2.721,-2.683 -4.496,-3.537c-1.779,-0.855 -3.891,-1.296 -6.337,-1.296c-2.554,-0 -4.779,0.466 -6.692,1.416c-1.908,0.975 -3.521,2.221 -4.833,3.759c-1.333,1.541 -2.358,3.321 -3.079,5.325c-0.725,2 -1.229,4.05 -1.488,6.133l30.684,0Z" style="fill:#1d1d1b;fill-rule:nonzero;"/><path d="M1048.74,359.486c-1.179,-0 -2.837,-0.096 -4.975,-0.342c-2.137,-0.229 -4.029,-0.667 -5.666,-1.304l2.187,-13.475c2,0.612 4.413,0.954 7.225,0.954c3.829,0 6.504,-1.125 8.054,-3.371c1.538,-2.229 2.313,-5.55 2.313,-10.016l-0,-69.155l16.504,0l-0,69.421c-0,9.288 -2.196,16.146 -6.613,20.613c-4.416,4.446 -10.75,6.675 -19.029,6.675m27.417,-117.588c-0,3.104 -1,5.571 -2.996,7.375c-2.004,1.834 -4.367,2.738 -7.096,2.738c-2.821,-0 -5.225,-0.904 -7.221,-2.738c-2.004,-1.804 -3.004,-4.271 -3.004,-7.375c0,-3.175 1,-5.666 3.004,-7.5c1.996,-1.808 4.4,-2.708 7.221,-2.708c2.729,-0 5.092,0.9 7.096,2.708c1.996,1.834 2.996,4.325 2.996,7.5" style="fill:#1d1d1b;fill-rule:nonzero;"/><path d="M1112.44,320.602c4.363,0 7.55,-0.512 9.554,-1.562c1.996,-1.05 2.984,-2.833 2.984,-5.396c-0,-2.342 -1.063,-4.296 -3.196,-5.833c-2.138,-1.571 -5.667,-3.259 -10.579,-5.063c-2.988,-1.1 -5.75,-2.246 -8.238,-3.491c-2.504,-1.221 -4.662,-2.663 -6.487,-4.288c-1.817,-1.637 -3.254,-3.617 -4.296,-5.933c-1.05,-2.329 -1.575,-5.159 -1.575,-8.529c-0,-6.542 2.412,-11.7 7.242,-15.484c4.812,-3.766 11.35,-5.637 19.637,-5.637c4.179,-0 8.183,0.391 12.004,1.141c3.817,0.78 6.679,1.513 8.592,2.25l-3,13.359c-1.813,-0.804 -4.138,-1.563 -6.963,-2.221c-2.816,-0.708 -6.087,-1.025 -9.82,-1.025c-3.355,-0 -6.084,0.562 -8.184,1.683c-2.091,1.15 -3.137,2.904 -3.137,5.25c-0,1.196 0.212,2.221 0.608,3.15c0.429,0.904 1.129,1.759 2.125,2.513c1,0.783 2.313,1.537 3.958,2.321c1.634,0.787 3.638,1.57 6,2.4c3.913,1.466 7.221,2.879 9.963,4.295c2.725,1.384 4.962,2.996 6.75,4.755c1.767,1.783 3.067,3.808 3.892,6.079c0.808,2.279 1.22,5.012 1.22,8.187c0,6.813 -2.52,11.996 -7.579,15.488c-5.046,3.483 -12.25,5.237 -21.616,5.237c-6.275,0 -11.325,-0.512 -15.142,-1.562c-3.808,-1.05 -6.5,-1.904 -8.05,-2.513l2.862,-13.796c2.467,1.005 5.392,1.955 8.805,2.884c3.412,0.904 7.3,1.341 11.666,1.341" style="fill:#1d1d1b;fill-rule:nonzero;"/><path d="M1172.59,290.622c2.087,-2.205 4.316,-4.525 6.691,-7.038c2.363,-2.517 4.675,-5.008 6.946,-7.496c2.279,-2.491 4.438,-4.912 6.479,-7.233c2.05,-2.321 3.8,-4.346 5.25,-6.079l19.505,-0c-4.538,5.104 -9.342,10.383 -14.392,15.825c-5.034,5.471 -10.113,10.775 -15.2,15.95c2.725,2.287 5.587,5.046 8.591,8.271c2.996,3.22 5.909,6.67 8.721,10.283c2.83,3.642 5.455,7.279 7.921,10.925c2.458,3.637 4.5,6.996 6.133,10.075l-19.087,-0c-1.638,-2.808 -3.529,-5.754 -5.667,-8.854c-2.137,-3.088 -4.437,-6.088 -6.887,-8.996c-2.45,-2.929 -4.95,-5.663 -7.5,-8.25c-2.554,-2.596 -5.042,-4.796 -7.504,-6.625l-0,32.725l-16.5,-0l-0,-91.792l16.5,-2.712l-0,51.021Z" style="fill:#1d1d1b;fill-rule:nonzero;"/><path d="M1248.84,241.897c0,3.105 -1.012,5.571 -3.004,7.38c-1.996,1.829 -4.358,2.733 -7.1,2.733c-2.812,-0 -5.225,-0.904 -7.229,-2.733c-1.996,-1.809 -2.983,-4.275 -2.983,-7.38c-0,-3.175 0.987,-5.662 2.983,-7.5c2.004,-1.804 4.417,-2.708 7.229,-2.708c2.742,0 5.104,0.904 7.1,2.708c1.992,1.838 3.004,4.325 3.004,7.5m-1.779,92.205l-16.5,-0l0,-71.33l16.5,0l0,71.33Z" style="fill:#1d1d1b;fill-rule:nonzero;"/><path d="M1263.29,297.157c0,-6.267 0.929,-11.792 2.804,-16.504c1.863,-4.738 4.334,-8.671 7.421,-11.796c3.092,-3.15 6.646,-5.521 10.642,-7.113c4.008,-1.575 8.091,-2.383 12.279,-2.383c9.825,-0 17.475,3.05 22.983,9.15c5.5,6.087 8.246,15.192 8.246,27.279c0,0.904 -0.021,1.929 -0.058,3.05c-0.05,1.15 -0.113,2.175 -0.213,3.079l-47.046,0c0.446,5.742 2.471,10.188 6.063,13.313c3.587,3.125 8.804,4.712 15.629,4.712c3.988,0 7.646,-0.366 10.975,-1.1c3.317,-0.733 5.929,-1.512 7.838,-2.321l2.175,13.505c-0.896,0.462 -2.163,0.925 -3.75,1.437c-1.588,0.492 -3.4,0.954 -5.45,1.346c-2.05,0.412 -4.25,0.754 -6.613,1.025c-2.362,0.292 -4.779,0.412 -7.229,0.412c-6.275,0 -11.725,-0.925 -16.379,-2.783c-4.642,-1.871 -8.45,-4.458 -11.45,-7.787c-3,-3.321 -5.229,-7.225 -6.679,-11.717c-1.463,-4.492 -2.188,-9.458 -2.188,-14.804m47.875,-7.367c0,-2.275 -0.312,-4.45 -0.95,-6.475c-0.637,-2.05 -1.579,-3.833 -2.804,-5.325c-1.221,-1.512 -2.721,-2.683 -4.5,-3.537c-1.775,-0.855 -3.888,-1.296 -6.338,-1.296c-2.55,-0 -4.779,0.466 -6.691,1.416c-1.896,0.975 -3.509,2.221 -4.834,3.759c-1.312,1.541 -2.337,3.321 -3.075,5.325c-0.729,2 -1.225,4.05 -1.491,6.133l30.683,0Z" style="fill:#1d1d1b;fill-rule:nonzero;"/><rect x="610.874" y="397.821" width="8.725" height="62.387" style="fill:#1d1d1b;"/><path d="M634.098,414.743c1.925,-0.463 4.462,-0.975 7.65,-1.513c3.179,-0.562 6.842,-0.808 10.983,-0.808c3.721,0 6.813,0.513 9.271,1.563c2.467,1.05 4.425,2.516 5.892,4.42c1.471,1.88 2.512,4.15 3.116,6.788c0.596,2.637 0.896,5.55 0.896,8.725l0,26.292l-8.379,-0l0,-24.496c0,-2.871 -0.2,-5.338 -0.575,-7.371c-0.4,-2.029 -1.033,-3.688 -1.95,-4.958c-0.883,-1.246 -2.087,-2.171 -3.583,-2.734c-1.504,-0.562 -3.363,-0.854 -5.592,-0.854c-0.9,0 -1.825,0.025 -2.792,0.071c-0.958,0.075 -1.875,0.15 -2.733,0.246c-0.875,0.096 -1.662,0.196 -2.35,0.316c-0.692,0.125 -1.192,0.196 -1.492,0.271l0,39.509l-8.362,-0l-0,-45.467Z" style="fill:#1d1d1b;fill-rule:nonzero;"/><path d="M693.15,412.326l17.73,-0l-0,7.008l-17.73,0l0,21.604c0,2.346 0.18,4.275 0.538,5.813c0.358,1.546 0.904,2.742 1.612,3.621c0.725,0.854 1.625,1.462 2.705,1.829c1.087,0.367 2.35,0.537 3.783,0.537c2.529,0 4.542,-0.266 6.075,-0.854c1.525,-0.583 2.587,-0.975 3.192,-1.221l1.625,6.934c-0.834,0.416 -2.313,0.954 -4.413,1.562c-2.1,0.638 -4.5,0.954 -7.204,0.954c-3.175,0 -5.8,-0.391 -7.875,-1.196c-2.067,-0.833 -3.725,-2.054 -4.988,-3.662c-1.262,-1.613 -2.15,-3.613 -2.662,-5.983c-0.5,-2.375 -0.763,-5.109 -0.763,-8.234l0,-41.775l8.375,-1.416l0,14.479Z" style="fill:#1d1d1b;fill-rule:nonzero;"/><path d="M717.539,435.812c0,-4.116 0.596,-7.762 1.8,-10.841c1.204,-3.1 2.792,-5.663 4.763,-7.688c1.991,-2.05 4.266,-3.591 6.858,-4.616c2.567,-1.009 5.213,-1.521 7.913,-1.521c6.3,-0 11.137,1.987 14.491,5.891c3.359,3.93 5.05,9.913 5.05,17.971l0,1.392c0,0.558 -0.037,1.096 -0.1,1.583l-32.046,0c0.363,4.859 1.771,8.521 4.238,11.071c2.446,2.513 6.3,3.758 11.512,3.758c2.938,0 5.417,-0.245 7.43,-0.758c2.008,-0.487 3.525,-1 4.55,-1.462l1.162,7.008c-1.008,0.533 -2.8,1.096 -5.35,1.708c-2.55,0.609 -5.442,0.9 -8.687,0.9c-4.08,0 -7.609,-0.608 -10.58,-1.854c-2.962,-1.221 -5.412,-2.929 -7.329,-5.079c-1.925,-2.146 -3.35,-4.708 -4.287,-7.696c-0.925,-2.979 -1.388,-6.225 -1.388,-9.767m32.129,-4.583c0.071,-3.792 -0.883,-6.892 -2.837,-9.308c-1.95,-2.442 -4.621,-3.663 -8.046,-3.663c-1.929,0 -3.617,0.392 -5.092,1.125c-1.475,0.754 -2.708,1.734 -3.725,2.929c-1.025,1.196 -1.825,2.588 -2.387,4.15c-0.579,1.563 -0.95,3.15 -1.129,4.767l23.216,0Z" style="fill:#1d1d1b;fill-rule:nonzero;"/><path d="M784.059,460.21c-5.166,-0.121 -8.829,-1.246 -10.979,-3.346c-2.158,-2.1 -3.254,-5.346 -3.254,-9.796l-0,-56.187l8.383,-1.417l0,56.258c0,1.371 0.121,2.525 0.359,3.405c0.241,0.925 0.625,1.633 1.162,2.17c0.538,0.538 1.263,0.955 2.167,1.221c0.9,0.271 2.008,0.488 3.325,0.663l-1.163,7.029Z" style="fill:#1d1d1b;fill-rule:nonzero;"/><path d="M798.277,404.945c-1.504,-0 -2.779,-0.513 -3.829,-1.488c-1.05,-1.004 -1.575,-2.321 -1.575,-4.004c-0,-1.679 0.525,-3.021 1.575,-3.996c1.05,-1.004 2.325,-1.5 3.829,-1.5c1.5,0 2.779,0.496 3.829,1.5c1.05,0.975 1.571,2.317 1.571,3.996c0,1.683 -0.521,3 -1.571,4.004c-1.05,0.975 -2.329,1.488 -3.829,1.488m4.238,55.266l-8.375,0l-0,-46.808l8.375,-0l-0,46.808Z" style="fill:#1d1d1b;fill-rule:nonzero;"/><path d="M845.81,455.522c-0.729,0.488 -2.112,1.1 -4.187,1.855c-2.067,0.758 -4.488,1.125 -7.254,1.125c-2.817,-0 -5.475,-0.442 -7.959,-1.367c-2.491,-0.879 -4.666,-2.271 -6.529,-4.175c-1.866,-1.879 -3.325,-4.225 -4.4,-7.067c-1.096,-2.829 -1.633,-6.175 -1.633,-10.079c-0,-3.412 0.517,-6.546 1.529,-9.4c1.025,-2.858 2.517,-5.325 4.463,-7.375c1.954,-2.075 4.341,-3.687 7.154,-4.858c2.825,-1.196 6,-1.784 9.533,-1.784c3.904,0 7.304,0.296 10.225,0.88c2.921,0.562 5.358,1.1 7.333,1.562l0,41.758c0,7.2 -1.858,12.425 -5.579,15.675c-3.721,3.221 -9.362,4.859 -16.929,4.859c-2.933,-0 -5.704,-0.246 -8.325,-0.734c-2.6,-0.466 -4.871,-1.05 -6.787,-1.687l1.525,-7.292c1.691,0.663 3.741,1.246 6.179,1.75c2.425,0.492 4.962,0.759 7.587,0.759c4.988,-0 8.575,-0.975 10.763,-2.971c2.191,-1.984 3.291,-5.134 3.291,-9.454l0,-1.98Zm-0.087,-34.75c-0.854,-0.22 -1.975,-0.462 -3.375,-0.658c-1.417,-0.221 -3.317,-0.317 -5.713,-0.317c-4.512,0 -7.979,1.463 -10.404,4.417c-2.437,2.929 -3.65,6.846 -3.65,11.696c0,2.688 0.346,5.004 1.038,6.933c0.687,1.904 1.612,3.492 2.791,4.771c1.171,1.242 2.517,2.196 4.046,2.783c1.538,0.609 3.113,0.9 4.725,0.9c2.225,0 4.267,-0.316 6.129,-0.95c1.863,-0.612 3.33,-1.366 4.413,-2.2l-0,-27.375Z" style="fill:#1d1d1b;fill-rule:nonzero;"/><path d="M865.424,435.812c0,-4.116 0.6,-7.762 1.8,-10.841c1.204,-3.1 2.792,-5.663 4.763,-7.688c1.991,-2.05 4.266,-3.591 6.85,-4.616c2.579,-1.009 5.221,-1.521 7.933,-1.521c6.288,-0 11.129,1.987 14.479,5.891c3.359,3.93 5.046,9.913 5.046,17.971l0,1.392c0,0.558 -0.038,1.096 -0.083,1.583l-32.063,0c0.367,4.859 1.775,8.521 4.242,11.071c2.45,2.513 6.3,3.758 11.516,3.758c2.934,0 5.413,-0.245 7.421,-0.758c2.017,-0.487 3.529,-1 4.554,-1.462l1.163,7.008c-1.008,0.533 -2.8,1.096 -5.35,1.708c-2.55,0.609 -5.45,0.9 -8.688,0.9c-4.079,0 -7.604,-0.608 -10.566,-1.854c-2.975,-1.221 -5.429,-2.929 -7.338,-5.079c-1.929,-2.146 -3.354,-4.708 -4.291,-7.696c-0.913,-2.979 -1.388,-6.225 -1.388,-9.767m32.134,-4.583c0.062,-3.792 -0.875,-6.892 -2.83,-9.308c-1.945,-2.442 -4.633,-3.663 -8.058,-3.663c-1.929,0 -3.612,0.392 -5.092,1.125c-1.466,0.754 -2.708,1.734 -3.725,2.929c-1.025,1.196 -1.812,2.588 -2.387,4.15c-0.579,1.563 -0.95,3.15 -1.129,4.767l23.221,0Z" style="fill:#1d1d1b;fill-rule:nonzero;"/><path d="M917.902,414.743c1.912,-0.463 4.462,-0.975 7.65,-1.513c3.179,-0.562 6.841,-0.808 10.983,-0.808c3.725,0 6.813,0.513 9.275,1.563c2.467,1.05 4.413,2.516 5.888,4.42c1.47,1.88 2.512,4.15 3.116,6.788c0.596,2.637 0.884,5.55 0.884,8.725l-0,26.292l-8.363,-0l-0,-24.496c-0,-2.871 -0.188,-5.338 -0.575,-7.371c-0.404,-2.029 -1.038,-3.688 -1.954,-4.958c-0.884,-1.246 -2.1,-2.171 -3.584,-2.734c-1.5,-0.562 -3.362,-0.854 -5.591,-0.854c-0.896,0 -1.825,0.025 -2.788,0.071c-0.962,0.075 -1.875,0.15 -2.737,0.246c-0.871,0.096 -1.646,0.196 -2.338,0.316c-0.704,0.125 -1.204,0.196 -1.504,0.271l0,39.509l-8.362,-0l-0,-45.467Z" style="fill:#1d1d1b;fill-rule:nonzero;"/><path d="M976.954,412.326l17.729,-0l0,7.008l-17.729,0l0,21.604c0,2.346 0.188,4.275 0.538,5.813c0.358,1.546 0.895,2.742 1.625,3.621c0.712,0.854 1.612,1.462 2.704,1.829c1.075,0.367 2.337,0.537 3.771,0.537c2.529,0 4.558,-0.266 6.075,-0.854c1.537,-0.583 2.6,-0.975 3.204,-1.221l1.612,6.934c-0.837,0.416 -2.312,0.954 -4.412,1.562c-2.088,0.638 -4.488,0.954 -7.192,0.954c-3.187,0 -5.812,-0.391 -7.875,-1.196c-2.075,-0.833 -3.737,-2.054 -5,-3.662c-1.262,-1.613 -2.15,-3.613 -2.65,-5.983c-0.512,-2.375 -0.762,-5.109 -0.762,-8.234l-0,-41.775l8.362,-1.416l0,14.479Z" style="fill:#1d1d1b;fill-rule:nonzero;"/><path d="M1004.86,414.743c1.925,-0.463 4.462,-0.975 7.65,-1.513c3.179,-0.562 6.842,-0.808 10.983,-0.808c3.725,0 6.813,0.513 9.271,1.563c2.471,1.05 4.425,2.516 5.892,4.42c1.479,1.88 2.512,4.15 3.117,6.788c0.595,2.637 0.883,5.55 0.883,8.725l-0,26.292l-8.363,-0l0,-24.496c0,-2.871 -0.191,-5.338 -0.575,-7.371c-0.404,-2.029 -1.037,-3.688 -1.941,-4.958c-0.896,-1.246 -2.1,-2.171 -3.596,-2.734c-1.5,-0.562 -3.363,-0.854 -5.592,-0.854c-0.9,0 -1.825,0.025 -2.787,0.071c-0.95,0.075 -1.875,0.15 -2.738,0.246c-0.871,0.096 -1.65,0.196 -2.337,0.316c-0.704,0.125 -1.204,0.196 -1.504,0.271l-0,39.509l-8.363,-0l0,-45.467Z" style="fill:#1d1d1b;fill-rule:nonzero;"/><path d="M1048.97,468.926c0.667,0.317 1.513,0.608 2.575,0.854c1.038,0.292 2.079,0.417 3.104,0.417c3.284,-0 5.871,-0.734 7.738,-2.192c1.862,-1.462 3.537,-3.862 5.037,-7.158c-3.779,-7.204 -7.3,-14.854 -10.579,-22.909c-3.258,-8.075 -5.987,-16.262 -8.137,-24.537l8.991,-0c0.659,2.708 1.459,5.612 2.388,8.737c0.921,3.125 1.958,6.325 3.117,9.63c1.133,3.287 2.358,6.608 3.683,9.879c1.312,3.321 2.7,6.504 4.137,9.554c2.284,-6.308 4.263,-12.533 5.938,-18.725c1.692,-6.163 3.275,-12.533 4.779,-19.075l8.638,-0c-2.163,8.812 -4.567,17.292 -7.205,25.437c-2.633,8.109 -5.487,15.734 -8.545,22.813c-1.205,2.708 -2.455,5.037 -3.742,6.992c-1.288,1.941 -2.713,3.529 -4.263,4.8c-1.562,1.27 -3.325,2.17 -5.275,2.783c-1.954,0.608 -4.15,0.904 -6.616,0.904c-0.659,0 -1.35,-0.05 -2.075,-0.125c-0.713,-0.096 -1.421,-0.217 -2.113,-0.362c-0.691,-0.15 -1.312,-0.321 -1.887,-0.513c-0.575,-0.175 -0.975,-0.321 -1.213,-0.442l1.525,-6.762Z" style="fill:#1d1d1b;fill-rule:nonzero;"/><path d="M1150.15,434.111c0.962,1.188 2.171,2.775 3.65,4.729c1.466,1.93 2.979,4.1 4.541,6.471c1.563,2.375 3.109,4.842 4.634,7.429c1.525,2.588 2.841,5.075 3.912,7.471l-9.537,0c-1.2,-2.296 -2.513,-4.591 -3.913,-6.933c-1.416,-2.346 -2.837,-4.567 -4.275,-6.725c-1.437,-2.121 -2.866,-4.1 -4.275,-5.979c-1.416,-1.859 -2.687,-3.467 -3.829,-4.859c-0.787,0.071 -1.575,0.096 -2.387,0.096l-10.304,0l-0,24.4l-8.726,0l0.001,-61.483c2.45,-0.588 5.2,-1 8.241,-1.221c3.025,-0.196 5.8,-0.292 8.309,-0.292c8.766,0 15.445,1.634 20.033,4.921c4.6,3.296 6.892,8.229 6.892,14.779c-0,4.125 -1.1,7.667 -3.292,10.621c-2.183,2.938 -5.417,5.134 -9.675,6.575m-13.229,-29.262c-3.725,-0 -6.563,0.096 -8.554,0.266l-0,23.496l6.2,0c3.016,0 5.704,-0.146 8.104,-0.441c2.416,-0.317 4.437,-0.88 6.091,-1.709c1.65,-0.854 2.925,-2.025 3.809,-3.562c0.916,-1.542 1.371,-3.567 1.371,-6.079c-0,-2.321 -0.455,-4.3 -1.371,-5.871c-0.884,-1.538 -2.113,-2.784 -3.638,-3.684c-1.533,-0.879 -3.321,-1.516 -5.396,-1.883c-2.075,-0.362 -4.279,-0.533 -6.616,-0.533" style="fill:#1d1d1b;fill-rule:nonzero;"/><path d="M1216.57,435.715c-0,3.733 -0.538,7.079 -1.613,10.083c-1.087,3.012 -2.6,5.6 -4.554,7.746c-1.946,2.15 -4.275,3.833 -6.971,5.004c-2.704,1.175 -5.641,1.733 -8.816,1.733c-3.188,0 -6.129,-0.558 -8.829,-1.733c-2.696,-1.171 -5.021,-2.854 -6.975,-5.004c-1.95,-2.146 -3.463,-4.734 -4.538,-7.746c-1.087,-3.004 -1.629,-6.35 -1.629,-10.083c-0,-3.63 0.542,-6.984 1.629,-10.034c1.075,-3.029 2.588,-5.616 4.538,-7.762c1.954,-2.175 4.279,-3.834 6.975,-5.009c2.7,-1.179 5.641,-1.762 8.829,-1.762c3.175,-0 6.112,0.583 8.816,1.762c2.696,1.175 5.025,2.834 6.971,5.009c1.954,2.146 3.467,4.733 4.554,7.762c1.075,3.05 1.613,6.404 1.613,10.034m-8.725,-0c-0,-5.267 -1.192,-9.45 -3.554,-12.55c-2.375,-3.075 -5.604,-4.638 -9.675,-4.638c-4.088,0 -7.313,1.563 -9.688,4.638c-2.362,3.1 -3.554,7.283 -3.554,12.55c0,5.275 1.192,9.47 3.554,12.558c2.375,3.1 5.6,4.637 9.688,4.637c4.071,0 7.3,-1.537 9.675,-4.637c2.362,-3.088 3.554,-7.283 3.554,-12.558" style="fill:#1d1d1b;fill-rule:nonzero;"/><path d="M1257.16,419.699c-1.262,1.392 -2.925,3.321 -4.987,5.858c-2.075,2.517 -4.292,5.309 -6.667,8.359c-2.375,3.066 -4.75,6.266 -7.112,9.637c-2.363,3.342 -4.45,6.575 -6.25,9.625l25.741,0l0,7.034l-35.729,-0l0,-5.592c1.434,-2.638 3.213,-5.542 5.309,-8.725c2.087,-3.175 4.3,-6.346 6.6,-9.496c2.316,-3.142 4.579,-6.121 6.754,-8.912c2.204,-2.784 4.104,-5.15 5.725,-7.055l-23.142,0l0,-7.033l33.758,0l0,6.3Z" style="fill:#1d1d1b;fill-rule:nonzero;"/><path d="M1306.31,460.21c-1.675,-4.321 -3.462,-9.254 -5.354,-14.829c-1.887,-5.542 -3.608,-11.296 -5.171,-17.309c-1.562,6.013 -3.279,11.767 -5.129,17.309c-1.862,5.575 -3.625,10.508 -5.317,14.829l-7.283,-0c-2.767,-6.175 -5.467,-13.242 -8.108,-21.15c-2.638,-7.929 -5.121,-16.479 -7.475,-25.658l9.004,-0c0.6,2.829 1.321,5.883 2.162,9.179c0.838,3.296 1.725,6.616 2.65,9.896c0.925,3.312 1.9,6.483 2.925,9.537c1.025,3.05 1.992,5.746 2.875,8.038c1.038,-2.838 2.042,-5.817 3.03,-8.967c0.983,-3.15 1.925,-6.346 2.841,-9.538c0.892,-3.229 1.742,-6.379 2.554,-9.454c0.8,-3.104 1.517,-5.983 2.113,-8.691l6.929,-0c0.55,2.708 1.204,5.587 1.992,8.691c0.775,3.075 1.625,6.225 2.508,9.454c0.917,3.192 1.85,6.388 2.842,9.538c0.987,3.15 2,6.129 3.025,8.967c0.887,-2.292 1.837,-4.988 2.829,-8.038c0.979,-3.054 1.958,-6.225 2.921,-9.537c0.966,-3.28 1.85,-6.6 2.7,-9.896c0.841,-3.296 1.562,-6.35 2.166,-9.179l8.638,-0c-2.338,9.179 -4.829,17.729 -7.475,25.658c-2.642,7.908 -5.338,14.975 -8.104,21.15l-7.288,-0Z" style="fill:#1d1d1b;fill-rule:nonzero;"/><path d="M1377.78,435.715c-0,3.733 -0.538,7.079 -1.613,10.083c-1.087,3.012 -2.6,5.6 -4.554,7.746c-1.946,2.15 -4.271,3.833 -6.971,5.004c-2.704,1.175 -5.642,1.733 -8.817,1.733c-3.191,0 -6.125,-0.558 -8.825,-1.733c-2.704,-1.171 -5.033,-2.854 -6.979,-5.004c-1.946,-2.146 -3.462,-4.734 -4.537,-7.746c-1.092,-3.004 -1.629,-6.35 -1.629,-10.083c-0,-3.63 0.537,-6.984 1.629,-10.034c1.075,-3.029 2.591,-5.616 4.537,-7.762c1.946,-2.175 4.275,-3.834 6.979,-5.009c2.7,-1.179 5.634,-1.762 8.825,-1.762c3.175,-0 6.113,0.583 8.817,1.762c2.7,1.175 5.025,2.834 6.971,5.009c1.954,2.146 3.467,4.733 4.554,7.762c1.075,3.05 1.613,6.404 1.613,10.034m-8.73,-0c0,-5.267 -1.183,-9.45 -3.545,-12.55c-2.375,-3.075 -5.605,-4.638 -9.68,-4.638c-4.087,0 -7.312,1.563 -9.691,4.638c-2.363,3.1 -3.55,7.283 -3.55,12.55c-0,5.275 1.187,9.47 3.55,12.558c2.379,3.1 5.604,4.637 9.691,4.637c4.075,0 7.305,-1.537 9.68,-4.637c2.362,-3.088 3.545,-7.283 3.545,-12.558m-2.337,-40.038l-12.688,12.321l-4.241,-3.788l11.529,-13.841l5.4,5.308Z" style="fill:#1d1d1b;fill-rule:nonzero;"/><path d="M1381.47,477.031c-0.725,0 -1.65,-0.075 -2.792,-0.246c-1.133,-0.191 -2.1,-0.437 -2.875,-0.729l1.075,-6.837c0.604,0.171 1.288,0.316 2.075,0.437c0.775,0.125 1.492,0.171 2.167,0.171c2.879,0 4.921,-0.875 6.15,-2.65c1.237,-1.758 1.85,-4.354 1.85,-7.771l-0,-46.004l8.375,0l-0,45.904c-0,6.013 -1.375,10.45 -4.096,13.379c-2.729,2.905 -6.717,4.346 -11.929,4.346m11.787,-72.087c-1.5,-0 -2.758,-0.513 -3.825,-1.488c-1.033,-1 -1.579,-2.321 -1.579,-4.004c0,-1.675 0.546,-3.021 1.579,-3.996c1.067,-0.975 2.325,-1.496 3.825,-1.496c1.5,0 2.792,0.521 3.829,1.496c1.05,0.975 1.575,2.321 1.575,3.996c0,1.683 -0.525,3.004 -1.575,4.004c-1.037,0.975 -2.329,1.488 -3.829,1.488" style="fill:#1d1d1b;fill-rule:nonzero;"/><rect x="4909.53" y="97.821" width="566.954" height="377.983" style="fill:#144194;"/><path d="M5180.93,180.195l11.987,-8.721l11.95,8.721l-4.562,-14.117l12.162,-8.712l-14.971,-0l-4.579,-14.309l-4.579,14.309l-15.009,-0l12.121,8.712l-4.521,14.117Z" style="fill:#ffed00;fill-rule:nonzero;"/><path d="M5119.01,196.821l11.988,-8.742l11.95,8.742l-4.567,-14.113l12.167,-8.741l-14.971,-0l-4.604,-14.334l-4.579,14.379l-14.946,-0.045l12.141,8.741l-4.579,14.113Z" style="fill:#ffed00;fill-rule:nonzero;"/><path d="M5085.66,205.073l-4.579,14.329l-14.971,-0.021l12.121,8.738l-4.521,14.112l11.95,-8.716l11.988,8.716l-4.567,-14.112l12.167,-8.738l-14.975,0l-4.613,-14.308Z" style="fill:#ffed00;fill-rule:nonzero;"/><path d="M5069.08,295.285l11.916,8.767l-4.541,-14.113l12.162,-8.742l-14.979,0l-4.558,-14.308l-4.65,14.358l-14.95,-0.05l12.125,8.742l-4.513,14.113l11.988,-8.767Z" style="fill:#ffed00;fill-rule:nonzero;"/><path d="M5090.26,343.21l-4.613,-14.284l-4.55,14.284l-14.991,-0l12.129,8.787l-4.542,14.063l11.954,-8.738l11.996,8.738l-4.558,-14.063l12.166,-8.787l-14.991,-0Z" style="fill:#ffed00;fill-rule:nonzero;"/><path d="M5135.63,388.595l-4.58,-14.283l-4.595,14.333l-14.992,-0.05l12.179,8.767l-4.533,14.083l11.941,-8.737l11.988,8.737l-4.546,-14.083l12.163,-8.767l-15.025,0Z" style="fill:#ffed00;fill-rule:nonzero;"/><path d="M5197.48,405.05l-4.579,-14.329l-4.558,14.329l-15.029,0l12.179,8.717l-4.579,14.133l11.987,-8.737l11.988,8.737l-4.596,-14.133l12.212,-8.717l-15.025,0Z" style="fill:#ffed00;fill-rule:nonzero;"/><path d="M5259.32,388.595l-4.612,-14.283l-4.596,14.333l-14.917,-0.05l12.104,8.767l-4.541,14.083l11.95,-8.737l12,8.737l-4.571,-14.083l12.212,-8.767l-15.029,0Z" style="fill:#ffed00;fill-rule:nonzero;"/><path d="M5304.72,343.21l-4.6,-14.284l-4.562,14.284l-14.967,-0l12.142,8.787l-4.613,14.063l12,-8.738l11.983,8.738l-4.57,-14.063l12.17,-8.787l-14.983,-0Z" style="fill:#ffed00;fill-rule:nonzero;"/><path d="M5336.12,281.027l-14.984,0l-4.541,-14.333l-4.642,14.333l-14.921,0l12.15,8.767l-4.612,14.083l12.025,-8.737l11.962,8.737l-4.579,-14.083l12.142,-8.767Z" style="fill:#ffed00;fill-rule:nonzero;"/><path d="M5288.14,242.011l11.987,-8.691l11.988,8.691l-4.571,-14.112l12.171,-8.692l-14.971,0l-4.617,-14.354l-4.558,14.404l-14.967,-0.05l12.138,8.692l-4.6,14.112Z" style="fill:#ffed00;fill-rule:nonzero;"/><path d="M5254.9,159.659l-4.52,14.354l-15.03,-0.046l12.167,8.742l-4.542,14.137l12,-8.766l11.913,8.766l-4.533,-14.137l12.12,-8.742l-14.962,0l-4.613,-14.308Z" style="fill:#ffed00;fill-rule:nonzero;"/><path d="M4019.86,343.869l-0,-62.379l38.075,-0l-0,7.47l-29.334,0l0,18.534l26.1,-0l0,7.296l-26.1,-0l0,21.608l31.588,-0l-0,7.471l-40.329,-0Z" style="fill:#1d1d1b;fill-rule:nonzero;"/><path d="M4105.82,341.525c-1.908,0.488 -4.45,0.975 -7.6,1.537c-3.15,0.538 -6.8,0.805 -10.937,0.805c-3.6,-0 -6.642,-0.513 -9.088,-1.584c-2.479,-1.025 -4.45,-2.541 -5.95,-4.445c-1.504,-1.93 -2.591,-4.2 -3.237,-6.813c-0.663,-2.608 -0.988,-5.492 -0.988,-8.667l0,-26.291l8.375,-0l0,24.487c0,5.688 0.884,9.767 2.684,12.254c1.8,2.442 4.841,3.688 9.104,3.688c0.9,-0 1.825,-0.025 2.787,-0.096c0.963,-0.05 1.863,-0.15 2.696,-0.221c0.846,-0.1 1.608,-0.196 2.292,-0.271c0.7,-0.096 1.187,-0.196 1.5,-0.316l-0,-39.525l8.362,-0l0,45.458Z" style="fill:#1d1d1b;fill-rule:nonzero;"/><path d="M4137.05,296.066c0.725,0 1.55,0.05 2.48,0.146c0.92,0.075 1.85,0.196 2.745,0.367c0.905,0.146 1.73,0.291 2.48,0.441c0.745,0.146 1.3,0.267 1.658,0.413l-1.438,7.275c-0.662,-0.242 -1.75,-0.513 -3.287,-0.854c-1.525,-0.342 -3.5,-0.488 -5.9,-0.488c-1.563,0 -3.1,0.146 -4.629,0.488c-1.538,0.341 -2.529,0.562 -3.009,0.683l0,39.333l-8.375,0l0,-44.825c1.975,-0.733 4.442,-1.391 7.375,-2.025c2.938,-0.637 6.25,-0.954 9.9,-0.954" style="fill:#1d1d1b;fill-rule:nonzero;"/><path d="M4195.39,319.382c0,3.733 -0.537,7.079 -1.612,10.083c-1.088,3.004 -2.6,5.592 -4.55,7.737c-1.95,2.175 -4.275,3.834 -6.971,5.009c-2.717,1.171 -5.654,1.754 -8.829,1.754c-3.192,-0 -6.125,-0.583 -8.825,-1.754c-2.704,-1.175 -5.029,-2.834 -6.975,-5.009c-1.954,-2.145 -3.463,-4.733 -4.55,-7.737c-1.079,-3.004 -1.617,-6.35 -1.617,-10.083c0,-3.663 0.538,-7.009 1.617,-10.034c1.087,-3.029 2.596,-5.641 4.55,-7.787c1.946,-2.175 4.271,-3.834 6.975,-4.984c2.7,-1.195 5.633,-1.779 8.825,-1.779c3.175,0 6.112,0.584 8.829,1.779c2.696,1.15 5.021,2.809 6.971,4.984c1.95,2.146 3.462,4.758 4.55,7.787c1.075,3.025 1.612,6.371 1.612,10.034m-8.741,-0c-0,-5.275 -1.171,-9.471 -3.546,-12.55c-2.375,-3.1 -5.604,-4.638 -9.675,-4.638c-4.075,0 -7.309,1.538 -9.671,4.638c-2.383,3.079 -3.567,7.275 -3.567,12.55c0,5.275 1.184,9.47 3.567,12.575c2.362,3.075 5.596,4.612 9.671,4.612c4.071,0 7.3,-1.537 9.675,-4.612c2.375,-3.105 3.546,-7.3 3.546,-12.575" style="fill:#1d1d1b;fill-rule:nonzero;"/><path d="M4247.96,320.553c-0,3.542 -0.475,6.813 -1.4,9.813c-0.938,3.004 -2.288,5.567 -4.088,7.742c-1.8,2.149 -4.012,3.833 -6.62,5.054c-2.617,1.171 -5.605,1.783 -8.967,1.783c-2.688,0 -5.075,-0.367 -7.15,-1.075c-2.063,-0.708 -3.613,-1.417 -4.625,-2.075l-0,18.725l-8.375,-0l-0,-62.013c1.971,-0.487 4.45,-1.025 7.421,-1.587c2.966,-0.563 6.404,-0.829 10.304,-0.829c3.6,-0 6.837,0.562 9.725,1.683c2.871,1.15 5.337,2.758 7.371,4.858c2.05,2.1 3.612,4.663 4.741,7.717c1.1,3.025 1.663,6.421 1.663,10.204m-8.738,0c0,-5.466 -1.354,-9.666 -4.05,-12.596c-2.7,-2.933 -6.3,-4.42 -10.804,-4.42c-2.508,-0 -4.487,0.095 -5.883,0.266c-1.429,0.196 -2.55,0.392 -3.375,0.638l-0,29.516c1.012,0.855 2.471,1.659 4.4,2.442c1.921,0.779 4.021,1.171 6.312,1.171c2.388,-0 4.438,-0.438 6.163,-1.317c1.696,-0.854 3.104,-2.054 4.175,-3.591c1.087,-1.538 1.862,-3.342 2.35,-5.396c0.479,-2.075 0.712,-4.321 0.712,-6.713" style="fill:#1d1d1b;fill-rule:nonzero;"/><path d="M4256.69,319.479c-0,-4.15 0.596,-7.762 1.8,-10.862c1.196,-3.079 2.792,-5.642 4.762,-7.692c1.988,-2.025 4.267,-3.567 6.846,-4.592c2.575,-1 5.213,-1.512 7.929,-1.512c6.288,-0 11.13,1.954 14.492,5.883c3.354,3.929 5.033,9.913 5.033,17.946l0,1.417c0,0.558 -0.025,1.071 -0.083,1.562l-32.058,0c0.366,4.858 1.775,8.567 4.241,11.084c2.45,2.512 6.3,3.783 11.513,3.783c2.95,-0 5.425,-0.267 7.442,-0.784c1.995,-0.512 3.508,-1 4.533,-1.487l1.171,7.033c-1.017,0.534 -2.805,1.121 -5.346,1.709c-2.563,0.608 -5.45,0.904 -8.688,0.904c-4.087,-0 -7.616,-0.613 -10.575,-1.858c-2.971,-1.221 -5.425,-2.905 -7.337,-5.08c-1.929,-2.171 -3.35,-4.733 -4.292,-7.687c-0.921,-2.979 -1.383,-6.225 -1.383,-9.767m32.125,-4.591c0.066,-3.784 -0.875,-6.884 -2.829,-9.325c-1.946,-2.417 -4.63,-3.638 -8.055,-3.638c-1.929,-0 -3.616,0.367 -5.091,1.125c-1.467,0.754 -2.708,1.733 -3.725,2.929c-1.025,1.196 -1.825,2.563 -2.383,4.125c-0.584,1.563 -0.955,3.15 -1.13,4.784l23.213,-0Z" style="fill:#1d1d1b;fill-rule:nonzero;"/><path d="M4301.51,360.69c-0.725,0 -1.65,-0.075 -2.788,-0.245c-1.137,-0.192 -2.1,-0.438 -2.887,-0.73l1.087,-6.837c0.6,0.171 1.288,0.317 2.063,0.437c0.787,0.125 1.5,0.171 2.166,0.171c2.888,0 4.938,-0.875 6.159,-2.658c1.225,-1.758 1.846,-4.346 1.846,-7.763l-0,-46l8.383,0l0,45.9c0,6.005 -1.379,10.45 -4.104,13.38c-2.738,2.904 -6.713,4.345 -11.925,4.345m11.787,-72.095c-1.495,-0 -2.77,-0.488 -3.82,-1.488c-1.05,-0.979 -1.575,-2.321 -1.575,-4.004c-0.001,-1.663 0.525,-3.004 1.574,-4.004c1.051,-0.975 2.326,-1.467 3.821,-1.467c1.5,0 2.775,0.492 3.825,1.467c1.05,1 1.575,2.341 1.575,4.004c0,1.683 -0.525,3.025 -1.575,4.004c-1.05,1 -2.325,1.488 -3.825,1.488" style="fill:#1d1d1b;fill-rule:nonzero;"/><path d="M4342.38,336.765c3.412,-0 5.962,-0.463 7.6,-1.367c1.654,-0.879 2.487,-2.321 2.487,-4.321c0,-2.029 -0.808,-3.662 -2.437,-4.858c-1.625,-1.175 -4.288,-2.542 -8.009,-4.054c-1.8,-0.709 -3.529,-1.442 -5.179,-2.196c-1.654,-0.759 -3.075,-1.638 -4.275,-2.663c-1.2,-1 -2.162,-2.246 -2.875,-3.687c-0.721,-1.438 -1.087,-3.221 -1.087,-5.321c-0,-4.125 1.537,-7.421 4.6,-9.838c3.045,-2.441 7.229,-3.637 12.516,-3.637c1.309,-0 2.634,0.071 3.946,0.217c1.325,0.145 2.55,0.316 3.688,0.537c1.154,0.196 2.145,0.442 3.025,0.658c0.862,0.271 1.537,0.467 2.029,0.638l-1.538,7.2c-0.904,-0.463 -2.304,-0.975 -4.233,-1.488c-1.921,-0.512 -4.233,-0.758 -6.917,-0.758c-2.354,0 -4.391,0.467 -6.129,1.392c-1.746,0.929 -2.612,2.391 -2.612,4.371c-0,1.025 0.187,1.929 0.591,2.708c0.384,0.783 0.984,1.467 1.792,2.1c0.821,0.662 1.812,1.221 3.017,1.758c1.204,0.538 2.637,1.125 4.329,1.709c2.208,0.854 4.196,1.662 5.929,2.491c1.742,0.804 3.229,1.734 4.458,2.834c1.234,1.075 2.184,2.391 2.829,3.904c0.667,1.537 0.992,3.421 0.992,5.616c0,4.346 -1.6,7.617 -4.808,9.813c-3.217,2.246 -7.792,3.346 -13.729,3.346c-4.138,-0 -7.371,-0.342 -9.709,-1.025c-2.35,-0.709 -3.937,-1.221 -4.779,-1.588l1.525,-7.2c0.963,0.367 2.488,0.9 4.6,1.634c2.1,0.708 4.892,1.075 8.363,1.075" style="fill:#1d1d1b;fill-rule:nonzero;"/><path d="M4388.1,318.112c1.8,1.392 3.7,3.1 5.712,5.125c2.013,2.054 3.988,4.25 5.95,6.617c1.938,2.396 3.788,4.787 5.525,7.229c1.754,2.417 3.213,4.687 4.413,6.787l-9.813,0c-1.262,-2.1 -2.712,-4.25 -4.358,-6.445c-1.654,-2.175 -3.375,-4.296 -5.175,-6.3c-1.8,-2 -3.629,-3.859 -5.488,-5.517c-1.866,-1.683 -3.637,-3.1 -5.316,-4.25l-0,22.512l-8.375,0l-0,-68.412l8.375,-1.442l-0,42.679c1.437,-1.441 3.025,-3.025 4.758,-4.783c1.742,-1.733 3.467,-3.517 5.142,-5.325c1.675,-1.779 3.275,-3.512 4.779,-5.175c1.483,-1.633 2.783,-3.1 3.854,-4.346l9.817,0c-1.371,1.492 -2.875,3.15 -4.496,4.959c-1.613,1.779 -3.304,3.587 -5.046,5.416c-1.729,1.859 -3.496,3.663 -5.271,5.521c-1.766,1.804 -3.425,3.538 -4.987,5.15" style="fill:#1d1d1b;fill-rule:nonzero;"/><path d="M4421.86,288.595c-1.5,0 -2.779,-0.487 -3.829,-1.487c-1.046,-0.979 -1.571,-2.321 -1.571,-4.004c0,-1.688 0.525,-3.004 1.571,-4.004c1.05,-0.98 2.329,-1.492 3.829,-1.492c1.5,-0 2.779,0.512 3.825,1.492c1.05,1 1.575,2.316 1.575,4.004c0,1.683 -0.525,3.025 -1.575,4.004c-1.046,1 -2.325,1.487 -3.825,1.487m4.225,55.275l-8.362,0l-0,-46.825l8.362,0l0,46.825Z" style="fill:#1d1d1b;fill-rule:nonzero;"/><path d="M4460.92,343.869l-0,-62.379l37.625,-0l-0,7.47l-28.884,0l0,18.8l25.646,0l0,7.396l-25.646,0l0,28.713l-8.741,-0Z" style="fill:#1d1d1b;fill-rule:nonzero;"/><path d="M4543.28,341.525c-1.908,0.488 -4.45,0.975 -7.6,1.537c-3.15,0.538 -6.8,0.805 -10.937,0.805c-3.6,-0 -6.642,-0.513 -9.088,-1.584c-2.479,-1.025 -4.45,-2.541 -5.95,-4.445c-1.504,-1.93 -2.587,-4.2 -3.237,-6.813c-0.663,-2.608 -0.988,-5.492 -0.988,-8.667l0,-26.291l8.375,-0l0,24.487c0,5.688 0.884,9.767 2.684,12.254c1.8,2.442 4.841,3.688 9.104,3.688c0.9,-0 1.825,-0.025 2.787,-0.096c0.963,-0.05 1.863,-0.15 2.696,-0.221c0.846,-0.1 1.608,-0.196 2.292,-0.271c0.7,-0.096 1.187,-0.196 1.5,-0.316l-0,-39.525l8.362,-0l0,45.458Z" style="fill:#1d1d1b;fill-rule:nonzero;"/><path d="M4557.24,298.41c1.925,-0.463 4.462,-0.975 7.65,-1.538c3.179,-0.537 6.842,-0.804 10.992,-0.804c3.712,0 6.8,0.534 9.258,1.584c2.467,1.05 4.425,2.516 5.904,4.42c1.458,1.88 2.496,4.125 3.1,6.788c0.596,2.637 0.896,5.542 0.896,8.717l-0,26.291l-8.375,0l-0,-24.487c-0,-2.879 -0.188,-5.346 -0.571,-7.371c-0.392,-2.054 -1.037,-3.688 -1.942,-4.958c-0.9,-1.267 -2.1,-2.171 -3.595,-2.734c-1.5,-0.587 -3.363,-0.879 -5.592,-0.879c-0.883,0 -1.825,0.05 -2.788,0.096c-0.945,0.075 -1.875,0.15 -2.737,0.221c-0.871,0.1 -1.646,0.196 -2.338,0.316c-0.7,0.125 -1.187,0.221 -1.487,0.271l-0,39.525l-8.375,0l-0,-45.458Z" style="fill:#1d1d1b;fill-rule:nonzero;"/><path d="M4638.7,274.36l8.363,-1.417l-0,68.484c-1.913,0.537 -4.375,1.075 -7.375,1.637c-3.004,0.538 -6.45,0.804 -10.35,0.804c-3.604,0 -6.838,-0.562 -9.713,-1.708c-2.887,-1.146 -5.354,-2.758 -7.391,-4.858c-2.034,-2.1 -3.609,-4.663 -4.725,-7.692c-1.109,-3.025 -1.659,-6.446 -1.659,-10.229c0,-3.588 0.463,-6.883 1.384,-9.888c0.941,-3.025 2.304,-5.591 4.104,-7.762c1.8,-2.15 3.996,-3.833 6.608,-5.029c2.613,-1.196 5.604,-1.809 8.967,-1.809c2.7,0 5.071,0.367 7.146,1.1c2.079,0.709 3.616,1.392 4.641,2.05l0,-23.683Zm0,31.521c-1.025,-0.829 -2.491,-1.638 -4.412,-2.442c-1.913,-0.758 -4.013,-1.171 -6.3,-1.171c-2.4,0 -4.45,0.463 -6.167,1.317c-1.708,0.879 -3.112,2.075 -4.183,3.588c-1.075,1.541 -1.863,3.37 -2.338,5.47c-0.491,2.1 -0.729,4.346 -0.729,6.738c0,5.471 1.354,9.667 4.054,12.646c2.696,2.979 6.3,4.471 10.796,4.471c2.292,-0 4.196,-0.125 5.713,-0.321c1.537,-0.217 2.729,-0.438 3.566,-0.684l0,-29.612Z" style="fill:#1d1d1b;fill-rule:nonzero;"/><path d="M4698.29,341.525c-1.908,0.488 -4.45,0.975 -7.6,1.537c-3.15,0.538 -6.8,0.805 -10.938,0.805c-3.6,-0 -6.641,-0.513 -9.087,-1.584c-2.479,-1.025 -4.45,-2.541 -5.95,-4.445c-1.504,-1.93 -2.588,-4.2 -3.238,-6.813c-0.662,-2.608 -0.987,-5.492 -0.987,-8.667l-0,-26.291l8.375,-0l-0,24.487c-0,5.688 0.883,9.767 2.683,12.254c1.8,2.442 4.842,3.688 9.104,3.688c0.9,-0 1.825,-0.025 2.788,-0.096c0.962,-0.05 1.862,-0.15 2.696,-0.221c0.846,-0.1 1.608,-0.196 2.291,-0.271c0.7,-0.096 1.188,-0.196 1.5,-0.316l0,-39.525l8.363,-0l-0,45.458Z" style="fill:#1d1d1b;fill-rule:nonzero;"/><path d="M4723.13,336.765c3.413,-0 5.963,-0.463 7.6,-1.367c1.655,-0.879 2.492,-2.321 2.492,-4.321c0,-2.029 -0.813,-3.662 -2.446,-4.858c-1.621,-1.175 -4.283,-2.542 -8.004,-4.054c-1.804,-0.709 -3.529,-1.442 -5.179,-2.196c-1.654,-0.759 -3.075,-1.638 -4.279,-2.663c-1.196,-1 -2.159,-2.246 -2.875,-3.687c-0.721,-1.438 -1.084,-3.221 -1.084,-5.321c0,-4.125 1.538,-7.421 4.6,-9.838c3.055,-2.441 7.23,-3.637 12.513,-3.637c1.312,-0 2.637,0.071 3.95,0.217c1.325,0.145 2.55,0.316 3.687,0.537c1.155,0.196 2.146,0.442 3.025,0.658c0.863,0.271 1.538,0.467 2.03,0.638l-1.538,7.2c-0.904,-0.463 -2.304,-0.975 -4.229,-1.488c-1.925,-0.512 -4.238,-0.758 -6.925,-0.758c-2.35,0 -4.388,0.467 -6.125,1.392c-1.746,0.929 -2.613,2.391 -2.613,4.371c0,1.025 0.188,1.929 0.592,2.708c0.383,0.783 0.983,1.467 1.792,2.1c0.821,0.662 1.812,1.221 3.016,1.758c1.205,0.538 2.638,1.125 4.33,1.709c2.208,0.854 4.195,1.662 5.933,2.491c1.737,0.804 3.225,1.734 4.454,2.834c1.221,1.075 2.183,2.391 2.829,3.904c0.667,1.537 0.992,3.421 0.992,5.616c-0,4.346 -1.6,7.617 -4.813,9.813c-3.216,2.246 -7.787,3.346 -13.725,3.346c-4.137,-0 -7.375,-0.342 -9.725,-1.025c-2.337,-0.709 -3.925,-1.221 -4.766,-1.588l1.525,-7.2c0.966,0.367 2.491,0.9 4.591,1.634c2.1,0.708 4.905,1.075 8.375,1.075" style="fill:#1d1d1b;fill-rule:nonzero;"/><path d="M4782.99,303.366c-1.263,1.367 -2.925,3.321 -4.988,5.833c-2.075,2.542 -4.3,5.325 -6.662,8.375c-2.375,3.075 -4.75,6.275 -7.113,9.646c-2.375,3.342 -4.45,6.567 -6.25,9.617l25.738,-0l-0,7.033l-35.742,-0l0,-5.592c1.442,-2.637 3.217,-5.541 5.317,-8.716c2.1,-3.196 4.296,-6.346 6.608,-9.496c2.317,-3.15 4.567,-6.129 6.754,-8.913c2.204,-2.808 4.1,-5.15 5.713,-7.079l-23.129,0l-0,-7.008l33.754,-0l-0,6.3Z" style="fill:#1d1d1b;fill-rule:nonzero;"/><path d="M3901.21,428.049c0.963,1.196 2.171,2.783 3.65,4.737c1.475,1.95 2.983,4.1 4.546,6.467c1.55,2.371 3.1,4.858 4.629,7.45c1.538,2.562 2.838,5.05 3.925,7.446l-9.537,-0c-1.213,-2.271 -2.513,-4.592 -3.925,-6.913c-1.413,-2.341 -2.834,-4.587 -4.275,-6.712c-1.438,-2.125 -2.863,-4.125 -4.275,-5.979c-1.417,-1.859 -2.692,-3.492 -3.825,-4.859c-0.788,0.046 -1.575,0.071 -2.388,0.071l-10.304,0l0,24.392l-8.733,-0l-0,-61.475c2.458,-0.588 5.212,-1 8.233,-1.196c3.029,-0.221 5.817,-0.321 8.325,-0.321c8.767,0 15.446,1.638 20.029,4.958c4.6,3.296 6.888,8.205 6.888,14.746c-0,4.15 -1.088,7.692 -3.288,10.621c-2.187,2.954 -5.416,5.125 -9.675,6.567m-13.225,-29.25c-3.725,-0 -6.575,0.1 -8.554,0.271l0,23.512l6.204,0c3.013,0 5.7,-0.175 8.109,-0.467c2.408,-0.291 4.429,-0.879 6.079,-1.708c1.65,-0.829 2.925,-2.025 3.821,-3.542c0.904,-1.537 1.358,-3.562 1.358,-6.079c-0,-2.366 -0.454,-4.296 -1.358,-5.858c-0.896,-1.563 -2.121,-2.808 -3.65,-3.688c-1.525,-0.9 -3.317,-1.537 -5.396,-1.904c-2.063,-0.366 -4.275,-0.537 -6.613,-0.537" style="fill:#1d1d1b;fill-rule:nonzero;"/><path d="M3967.65,429.684c-0,3.713 -0.538,7.079 -1.625,10.084c-1.075,2.979 -2.588,5.566 -4.554,7.737c-1.934,2.15 -4.259,3.833 -6.975,4.983c-2.7,1.171 -5.634,1.759 -8.809,1.759c-3.191,-0 -6.129,-0.588 -8.825,-1.759c-2.704,-1.15 -5.029,-2.833 -6.975,-4.983c-1.954,-2.171 -3.462,-4.758 -4.554,-7.738c-1.075,-3.004 -1.612,-6.37 -1.612,-10.083c-0,-3.662 0.537,-7.029 1.612,-10.033c1.092,-3.029 2.6,-5.642 4.554,-7.788c1.946,-2.175 4.271,-3.833 6.975,-5.008c2.696,-1.171 5.634,-1.754 8.825,-1.754c3.175,-0 6.109,0.583 8.809,1.754c2.716,1.175 5.041,2.833 6.975,5.008c1.966,2.146 3.479,4.759 4.554,7.788c1.087,3.004 1.625,6.371 1.625,10.033m-8.742,0c0,-5.275 -1.183,-9.471 -3.546,-12.575c-2.375,-3.075 -5.604,-4.612 -9.675,-4.612c-4.087,-0 -7.316,1.537 -9.679,4.612c-2.375,3.104 -3.558,7.3 -3.558,12.575c-0,5.275 1.183,9.45 3.558,12.55c2.363,3.075 5.592,4.638 9.679,4.638c4.071,-0 7.3,-1.563 9.675,-4.638c2.363,-3.1 3.546,-7.275 3.546,-12.55" style="fill:#1d1d1b;fill-rule:nonzero;"/><path d="M4008.24,413.644c-1.263,1.392 -2.925,3.346 -4.988,5.859c-2.075,2.516 -4.304,5.325 -6.667,8.375c-2.37,3.05 -4.745,6.275 -7.108,9.62c-2.375,3.367 -4.45,6.592 -6.25,9.642l25.738,0l-0,7.008l-35.738,0l0,-5.566c1.438,-2.638 3.213,-5.542 5.313,-8.742c2.1,-3.175 4.295,-6.321 6.608,-9.471c2.317,-3.175 4.567,-6.129 6.75,-8.937c2.204,-2.784 4.104,-5.125 5.717,-7.054l-23.13,-0l0,-7.034l33.755,0l-0,6.3Z" style="fill:#1d1d1b;fill-rule:nonzero;"/><path d="M4057.39,454.147c-1.691,-4.321 -3.462,-9.254 -5.366,-14.796c-1.884,-5.541 -3.613,-11.329 -5.175,-17.333c-1.563,6.004 -3.259,11.792 -5.121,17.333c-1.863,5.542 -3.625,10.475 -5.317,14.796l-7.287,0c-2.759,-6.175 -5.463,-13.233 -8.1,-21.142c-2.65,-7.912 -5.134,-16.479 -7.471,-25.658l8.996,0c0.6,2.829 1.325,5.883 2.162,9.179c0.842,3.321 1.729,6.617 2.654,9.913c0.934,3.296 1.909,6.491 2.938,9.546c1.012,3.05 1.971,5.737 2.875,8.004c1.025,-2.804 2.025,-5.809 3.012,-8.959c0.984,-3.15 1.938,-6.32 2.834,-9.545c0.904,-3.196 1.75,-6.346 2.562,-9.446c0.813,-3.104 1.517,-5.984 2.113,-8.692l6.941,0c0.538,2.708 1.2,5.588 1.975,8.692c0.788,3.1 1.625,6.25 2.521,9.446c0.904,3.225 1.838,6.395 2.829,9.545c1,3.15 2,6.155 3.025,8.959c0.896,-2.267 1.85,-4.954 2.838,-8.004c0.983,-3.055 1.962,-6.25 2.925,-9.546c0.967,-3.296 1.85,-6.592 2.7,-9.913c0.833,-3.296 1.546,-6.35 2.162,-9.179l8.638,0c-2.338,9.179 -4.842,17.746 -7.475,25.658c-2.638,7.909 -5.338,14.967 -8.1,21.142l-7.288,0Z" style="fill:#1d1d1b;fill-rule:nonzero;"/><path d="M4128.87,429.684c0,3.713 -0.537,7.079 -1.625,10.084c-1.075,2.979 -2.587,5.566 -4.554,7.737c-1.933,2.15 -4.258,3.833 -6.975,4.983c-2.7,1.171 -5.633,1.759 -8.808,1.759c-3.192,-0 -6.129,-0.588 -8.825,-1.759c-2.704,-1.15 -5.029,-2.833 -6.975,-4.983c-1.954,-2.171 -3.463,-4.758 -4.554,-7.738c-1.075,-3.004 -1.613,-6.37 -1.613,-10.083c0,-3.662 0.538,-7.029 1.613,-10.033c1.091,-3.029 2.6,-5.642 4.554,-7.788c1.946,-2.175 4.271,-3.833 6.975,-5.008c2.696,-1.171 5.633,-1.754 8.825,-1.754c3.175,-0 6.108,0.583 8.808,1.754c2.717,1.175 5.042,2.833 6.975,5.008c1.967,2.146 3.479,4.759 4.554,7.788c1.088,3.004 1.625,6.371 1.625,10.033m-8.741,0c-0,-5.275 -1.184,-9.471 -3.546,-12.575c-2.375,-3.075 -5.604,-4.612 -9.675,-4.612c-4.088,-0 -7.313,1.537 -9.679,4.612c-2.375,3.104 -3.559,7.3 -3.559,12.575c0,5.275 1.184,9.45 3.559,12.55c2.366,3.075 5.591,4.638 9.679,4.638c4.071,-0 7.3,-1.563 9.675,-4.638c2.362,-3.1 3.546,-7.275 3.546,-12.55" style="fill:#1d1d1b;fill-rule:nonzero;"/><path d="M4132.56,470.993c-0.725,-0 -1.65,-0.096 -2.792,-0.267c-1.133,-0.171 -2.096,-0.416 -2.883,-0.733l1.087,-6.838c0.6,0.196 1.288,0.342 2.063,0.463c0.787,0.125 1.5,0.171 2.162,0.171c2.892,-0 4.934,-0.875 6.159,-2.659c1.241,-1.758 1.854,-4.37 1.854,-7.787l-0,-45.996l8.371,0l-0,45.896c-0,6.029 -1.371,10.475 -4.096,13.379c-2.742,2.904 -6.713,4.371 -11.925,4.371m11.783,-72.096c-1.5,0 -2.771,-0.512 -3.825,-1.487c-1.05,-1 -1.575,-2.321 -1.575,-4.03c0,-1.658 0.525,-2.979 1.575,-3.979c1.054,-1 2.325,-1.487 3.825,-1.487c1.504,-0 2.792,0.487 3.842,1.487c1.037,1 1.562,2.321 1.562,3.979c0,1.709 -0.525,3.03 -1.562,4.03c-1.05,0.975 -2.338,1.487 -3.842,1.487" style="fill:#1d1d1b;fill-rule:nonzero;"/><path d="M4199.79,451.803c-1.925,0.488 -4.45,1 -7.6,1.538c-3.15,0.537 -6.8,0.804 -10.938,0.804c-3.6,0 -6.641,-0.512 -9.1,-1.563c-2.466,-1.045 -4.437,-2.537 -5.937,-4.466c-1.504,-1.904 -2.588,-4.175 -3.238,-6.788c-0.662,-2.612 -0.987,-5.491 -0.987,-8.666l-0,-26.292l8.375,-0l-0,24.462c-0,5.713 0.883,9.788 2.683,12.255c1.8,2.466 4.842,3.687 9.1,3.687c0.904,0 1.825,-0.025 2.792,-0.075c0.962,-0.071 1.85,-0.146 2.696,-0.242c0.837,-0.1 1.6,-0.17 2.291,-0.27c0.7,-0.096 1.188,-0.196 1.488,-0.317l-0,-39.5l8.375,-0l-0,45.433Z" style="fill:#1d1d1b;fill-rule:nonzero;"/><path d="M4265.15,428.049c0.963,1.196 2.171,2.783 3.65,4.737c1.463,1.95 2.971,4.1 4.534,6.467c1.562,2.371 3.1,4.858 4.641,7.45c1.525,2.562 2.838,5.05 3.913,7.446l-9.533,-0c-1.205,-2.271 -2.517,-4.592 -3.917,-6.913c-1.413,-2.341 -2.833,-4.587 -4.275,-6.712c-1.438,-2.125 -2.875,-4.125 -4.275,-5.979c-1.417,-1.859 -2.683,-3.492 -3.838,-4.859c-0.775,0.046 -1.575,0.071 -2.375,0.071l-10.312,0l-0,24.392l-8.725,-0l-0,-61.475c2.45,-0.588 5.2,-1 8.242,-1.196c3.02,-0.221 5.8,-0.321 8.316,-0.321c8.754,0 15.446,1.638 20.029,4.958c4.588,3.296 6.888,8.205 6.888,14.746c-0,4.15 -1.096,7.692 -3.288,10.621c-2.187,2.954 -5.416,5.125 -9.675,6.567m-13.237,-29.25c-3.713,-0 -6.563,0.1 -8.55,0.271l-0,23.512l6.212,0c3,0 5.7,-0.175 8.096,-0.467c2.409,-0.291 4.425,-0.879 6.079,-1.708c1.65,-0.829 2.925,-2.025 3.821,-3.542c0.904,-1.537 1.359,-3.562 1.359,-6.079c-0,-2.366 -0.455,-4.296 -1.359,-5.858c-0.896,-1.563 -2.108,-2.808 -3.637,-3.688c-1.538,-0.9 -3.329,-1.537 -5.396,-1.904c-2.071,-0.366 -4.288,-0.537 -6.625,-0.537" style="fill:#1d1d1b;fill-rule:nonzero;"/><path d="M4287.64,429.757c0,-4.125 0.6,-7.737 1.8,-10.841c1.205,-3.1 2.792,-5.663 4.775,-7.688c1.975,-2.029 4.267,-3.566 6.842,-4.591c2.567,-1.025 5.225,-1.538 7.921,-1.538c6.3,0 11.129,1.979 14.492,5.908c3.362,3.93 5.045,9.913 5.045,17.946l0,1.392c0,0.583 -0.033,1.096 -0.095,1.583l-32.038,0c0.358,4.859 1.758,8.546 4.221,11.063c2.462,2.512 6.3,3.783 11.512,3.783c2.95,0 5.425,-0.246 7.442,-0.758c1.996,-0.513 3.521,-1 4.546,-1.488l1.167,7.029c-1.013,0.538 -2.8,1.1 -5.355,1.688c-2.562,0.608 -5.45,0.925 -8.683,0.925c-4.092,-0 -7.621,-0.633 -10.579,-1.854c-2.971,-1.221 -5.425,-2.929 -7.338,-5.079c-1.929,-2.171 -3.35,-4.734 -4.275,-7.688c-0.937,-2.979 -1.4,-6.229 -1.4,-9.792m32.134,-4.591c0.07,-3.759 -0.884,-6.884 -2.83,-9.3c-1.954,-2.442 -4.637,-3.663 -8.05,-3.663c-1.929,0 -3.625,0.392 -5.104,1.125c-1.466,0.754 -2.708,1.734 -3.725,2.929c-1.025,1.196 -1.812,2.588 -2.383,4.15c-0.579,1.563 -0.942,3.15 -1.129,4.759l23.221,-0Z" style="fill:#1d1d1b;fill-rule:nonzero;"/><path d="M4369.47,449.484c-0.725,0.488 -2.112,1.1 -4.187,1.854c-2.063,0.734 -4.484,1.125 -7.25,1.125c-2.817,0 -5.475,-0.462 -7.959,-1.366c-2.491,-0.905 -4.666,-2.296 -6.525,-4.175c-1.87,-1.905 -3.329,-4.25 -4.412,-7.08c-1.083,-2.808 -1.633,-6.179 -1.633,-10.083c-0,-3.421 0.512,-6.546 1.541,-9.4c1.013,-2.833 2.5,-5.3 4.45,-7.375c1.95,-2.075 4.338,-3.687 7.163,-4.858c2.812,-1.171 6,-1.759 9.533,-1.759c3.904,0 7.3,0.296 10.221,0.855c2.908,0.562 5.358,1.1 7.333,1.562l0,41.775c0,7.2 -1.846,12.425 -5.575,15.65c-3.725,3.246 -9.366,4.858 -16.929,4.858c-2.933,0 -5.712,-0.22 -8.325,-0.708c-2.612,-0.487 -4.871,-1.05 -6.8,-1.708l1.542,-7.275c1.675,0.633 3.737,1.216 6.162,1.733c2.421,0.513 4.963,0.779 7.6,0.779c4.988,0 8.575,-1 10.763,-2.979c2.187,-1.975 3.287,-5.125 3.287,-9.446l0,-1.979Zm-0.087,-34.767c-0.854,-0.216 -1.975,-0.462 -3.375,-0.658c-1.413,-0.196 -3.325,-0.317 -5.725,-0.317c-4.504,0 -7.963,1.463 -10.388,4.417c-2.433,2.933 -3.65,6.838 -3.65,11.696c0,2.687 0.338,5.004 1.038,6.933c0.683,1.929 1.612,3.517 2.791,4.763c1.171,1.267 2.509,2.196 4.046,2.808c1.538,0.584 3.113,0.9 4.725,0.9c2.225,0 4.267,-0.341 6.125,-0.95c1.863,-0.637 3.329,-1.366 4.413,-2.2l-0,-27.392Z" style="fill:#1d1d1b;fill-rule:nonzero;"/><path d="M4395.84,398.898c-1.5,0 -2.779,-0.512 -3.829,-1.487c-1.046,-1.004 -1.571,-2.321 -1.571,-4.004c-0,-1.688 0.525,-3.004 1.571,-4.004c1.05,-1.005 2.329,-1.492 3.829,-1.492c1.5,-0 2.779,0.487 3.829,1.492c1.05,1 1.575,2.316 1.575,4.004c0,1.683 -0.525,3 -1.575,4.004c-1.05,0.975 -2.329,1.487 -3.829,1.487m4.225,55.25l-8.375,0l-0,-46.8l8.375,0l-0,46.8Z" style="fill:#1d1d1b;fill-rule:nonzero;"/><path d="M4455.34,429.684c0,3.713 -0.537,7.079 -1.612,10.084c-1.084,2.979 -2.6,5.566 -4.55,7.737c-1.95,2.15 -4.275,3.833 -6.971,4.983c-2.717,1.171 -5.654,1.759 -8.829,1.759c-3.192,-0 -6.13,-0.588 -8.825,-1.759c-2.705,-1.15 -5.03,-2.833 -6.975,-4.983c-1.955,-2.171 -3.463,-4.758 -4.55,-7.738c-1.08,-3.004 -1.617,-6.37 -1.617,-10.083c-0,-3.662 0.537,-7.029 1.617,-10.033c1.087,-3.029 2.595,-5.642 4.55,-7.788c1.945,-2.175 4.27,-3.833 6.975,-5.008c2.695,-1.171 5.633,-1.754 8.825,-1.754c3.175,-0 6.112,0.583 8.829,1.754c2.696,1.175 5.021,2.833 6.971,5.008c1.95,2.146 3.466,4.759 4.55,7.788c1.075,3.004 1.612,6.371 1.612,10.033m-8.742,0c0,-5.275 -1.17,-9.471 -3.545,-12.575c-2.375,-3.075 -5.605,-4.612 -9.675,-4.612c-4.075,-0 -7.313,1.537 -9.68,4.612c-2.375,3.104 -3.545,7.3 -3.545,12.575c-0,5.275 1.17,9.45 3.545,12.55c2.367,3.075 5.605,4.638 9.68,4.638c4.07,-0 7.3,-1.563 9.675,-4.638c2.375,-3.1 3.545,-7.275 3.545,-12.55" style="fill:#1d1d1b;fill-rule:nonzero;"/><path d="M4466.68,408.688c1.908,-0.462 4.462,-0.975 7.646,-1.512c3.183,-0.563 6.846,-0.809 10.996,-0.809c3.712,0 6.8,0.513 9.258,1.563c2.467,1.05 4.425,2.542 5.9,4.421c1.458,1.879 2.496,4.15 3.1,6.787c0.6,2.659 0.9,5.567 0.9,8.738l-0,26.296l-8.375,-0l-0,-24.488c-0,-2.879 -0.188,-5.346 -0.575,-7.396c-0.388,-2.029 -1.038,-3.687 -1.938,-4.958c-0.9,-1.246 -2.1,-2.146 -3.604,-2.733c-1.496,-0.563 -3.354,-0.854 -5.583,-0.854c-0.896,-0 -1.825,0.025 -2.788,0.095c-0.95,0.05 -1.875,0.125 -2.737,0.221c-0.879,0.096 -1.667,0.196 -2.338,0.317c-0.7,0.125 -1.204,0.221 -1.5,0.271l0,39.525l-8.362,-0l-0,-45.484Z" style="fill:#1d1d1b;fill-rule:nonzero;"/><path d="M4533.02,405.295c3.363,-0 6.2,0.416 8.505,1.295c2.312,0.875 4.17,2.096 5.583,3.684c1.417,1.587 2.408,3.491 3.012,5.691c0.6,2.171 0.9,4.588 0.9,7.225l0,29.246c-0.725,0.125 -1.72,0.296 -3.008,0.517c-1.287,0.192 -2.754,0.387 -4.367,0.583c-1.62,0.171 -3.375,0.342 -5.27,0.488c-1.892,0.146 -3.767,0.221 -5.617,0.221c-2.65,-0 -5.083,-0.267 -7.3,-0.805c-2.221,-0.537 -4.138,-1.391 -5.763,-2.566c-1.612,-1.171 -2.875,-2.709 -3.779,-4.638c-0.896,-1.929 -1.346,-4.221 -1.346,-6.933c0,-2.563 0.513,-4.783 1.563,-6.667c1.046,-1.854 2.487,-3.341 4.292,-4.491c1.8,-1.146 3.9,-1.975 6.295,-2.513c2.4,-0.537 4.913,-0.829 7.563,-0.829c0.837,-0 1.696,0.046 2.612,0.146c0.888,0.096 1.755,0.221 2.563,0.366c0.812,0.146 1.517,0.292 2.112,0.413c0.6,0.1 1.025,0.196 1.263,0.246l-0,-2.321c-0,-1.392 -0.15,-2.733 -0.45,-4.1c-0.3,-1.342 -0.838,-2.563 -1.625,-3.588c-0.775,-1.05 -1.833,-1.904 -3.183,-2.541c-1.367,-0.609 -3.113,-0.95 -5.28,-0.95c-2.758,-0 -5.179,0.216 -7.233,0.583c-2.075,0.392 -3.625,0.808 -4.637,1.221l-0.992,-6.933c1.075,-0.463 2.875,-0.925 5.404,-1.392c2.508,-0.438 5.246,-0.658 8.183,-0.658m0.713,41.92c1.983,0 3.737,-0.025 5.275,-0.125c1.525,-0.095 2.8,-0.241 3.825,-0.487l-0,-13.967c-0.604,-0.291 -1.571,-0.533 -2.921,-0.754c-1.367,-0.221 -2.992,-0.317 -4.912,-0.317c-1.267,0 -2.588,0.096 -4.005,0.292c-1.412,0.171 -2.7,0.538 -3.879,1.1c-1.158,0.583 -2.146,1.342 -2.921,2.342c-0.775,1 -1.158,2.296 -1.158,3.933c0,2.975 0.946,5.075 2.871,6.25c1.912,1.171 4.525,1.733 7.825,1.733" style="fill:#1d1d1b;fill-rule:nonzero;"/><path d="M4578.48,454.147c-5.162,-0.121 -8.825,-1.221 -10.975,-3.321c-2.158,-2.1 -3.254,-5.371 -3.254,-9.812l-0,-56.179l8.383,-1.417l0,56.25c0,1.371 0.121,2.517 0.359,3.421c0.237,0.9 0.625,1.608 1.158,2.146c0.537,0.537 1.267,0.954 2.167,1.22c0.9,0.271 2.008,0.513 3.341,0.684l-1.179,7.008Z" style="fill:#1d1d1b;fill-rule:nonzero;"/><path d="M4588.56,408.688c1.908,-0.462 4.463,-0.975 7.646,-1.512c3.183,-0.563 6.846,-0.809 10.996,-0.809c3.712,0 6.8,0.513 9.258,1.563c2.467,1.05 4.425,2.542 5.904,4.421c1.459,1.879 2.496,4.15 3.1,6.787c0.596,2.659 0.896,5.567 0.896,8.738l0,26.296l-8.375,-0l0,-24.488c0,-2.879 -0.187,-5.346 -0.571,-7.396c-0.391,-2.029 -1.037,-3.687 -1.941,-4.958c-0.9,-1.246 -2.1,-2.146 -3.605,-2.733c-1.491,-0.563 -3.354,-0.854 -5.583,-0.854c-0.896,-0 -1.825,0.025 -2.788,0.095c-0.945,0.05 -1.875,0.125 -2.737,0.221c-0.875,0.096 -1.663,0.196 -2.338,0.317c-0.7,0.125 -1.2,0.221 -1.5,0.271l0,39.525l-8.362,-0l-0,-45.484Z" style="fill:#1d1d1b;fill-rule:nonzero;"/><path d="M4637.16,429.757c0,-4.125 0.6,-7.737 1.813,-10.841c1.187,-3.1 2.791,-5.663 4.762,-7.688c1.988,-2.029 4.267,-3.566 6.838,-4.591c2.575,-1.025 5.229,-1.538 7.925,-1.538c6.3,0 11.129,1.979 14.491,5.908c3.359,3.93 5.05,9.913 5.05,17.946l0,1.392c0,0.583 -0.037,1.096 -0.1,1.583l-32.037,0c0.358,4.859 1.758,8.546 4.225,11.063c2.458,2.512 6.296,3.783 11.521,3.783c2.937,0 5.416,-0.246 7.429,-0.758c2.008,-0.513 3.521,-1 4.546,-1.488l1.162,7.029c-1.008,0.538 -2.796,1.1 -5.35,1.688c-2.55,0.608 -5.45,0.925 -8.683,0.925c-4.079,-0 -7.617,-0.633 -10.579,-1.854c-2.971,-1.221 -5.425,-2.929 -7.334,-5.079c-1.929,-2.171 -3.354,-4.734 -4.279,-7.688c-0.937,-2.979 -1.4,-6.229 -1.4,-9.792m32.138,-4.591c0.066,-3.759 -0.888,-6.884 -2.838,-9.3c-1.95,-2.442 -4.633,-3.663 -8.046,-3.663c-1.929,0 -3.625,0.392 -5.104,1.125c-1.462,0.754 -2.696,1.734 -3.721,2.929c-1.025,1.196 -1.812,2.588 -2.387,4.15c-0.579,1.563 -0.942,3.15 -1.129,4.759l23.225,-0Z" style="fill:#1d1d1b;fill-rule:nonzero;"/><path d="M4718.99,449.484c-0.725,0.488 -2.112,1.1 -4.187,1.854c-2.063,0.734 -4.488,1.125 -7.25,1.125c-2.817,0 -5.475,-0.462 -7.967,-1.366c-2.483,-0.905 -4.658,-2.296 -6.525,-4.175c-1.863,-1.905 -3.321,-4.25 -4.413,-7.08c-1.075,-2.808 -1.625,-6.179 -1.625,-10.083c0,-3.421 0.513,-6.546 1.542,-9.4c1.012,-2.833 2.5,-5.3 4.446,-7.375c1.966,-2.075 4.341,-3.687 7.166,-4.858c2.813,-1.171 6,-1.759 9.534,-1.759c3.9,0 7.312,0.296 10.233,0.855c2.896,0.562 5.346,1.1 7.321,1.562l-0,41.775c-0,7.2 -1.85,12.425 -5.579,15.65c-3.721,3.246 -9.363,4.858 -16.925,4.858c-2.934,0 -5.713,-0.22 -8.325,-0.708c-2.613,-0.487 -4.871,-1.05 -6.8,-1.708l1.537,-7.275c1.679,0.633 3.742,1.216 6.167,1.733c2.421,0.513 4.975,0.779 7.6,0.779c4.983,0 8.575,-1 10.758,-2.979c2.192,-1.975 3.292,-5.125 3.292,-9.446l-0,-1.979Zm-0.088,-34.767c-0.854,-0.216 -1.975,-0.462 -3.375,-0.658c-1.416,-0.196 -3.312,-0.317 -5.712,-0.317c-4.517,0 -7.975,1.463 -10.4,4.417c-2.442,2.933 -3.65,6.838 -3.65,11.696c-0,2.687 0.337,5.004 1.037,6.933c0.684,1.929 1.613,3.517 2.784,4.763c1.179,1.267 2.525,2.196 4.054,2.808c1.537,0.584 3.112,0.9 4.721,0.9c2.229,0 4.266,-0.341 6.129,-0.95c1.862,-0.637 3.321,-1.366 4.412,-2.2l0,-27.392Z" style="fill:#1d1d1b;fill-rule:nonzero;"/><path d="M4782.53,429.684c0,3.713 -0.537,7.079 -1.612,10.084c-1.084,2.979 -2.6,5.566 -4.55,7.737c-1.95,2.15 -4.275,3.833 -6.971,4.983c-2.704,1.171 -5.642,1.759 -8.829,1.759c-3.18,-0 -6.125,-0.588 -8.813,-1.759c-2.717,-1.15 -5.042,-2.833 -6.987,-4.983c-1.955,-2.171 -3.463,-4.758 -4.538,-7.738c-1.092,-3.004 -1.629,-6.37 -1.629,-10.083c-0,-3.662 0.537,-7.029 1.629,-10.033c1.075,-3.029 2.583,-5.642 4.538,-7.788c1.945,-2.175 4.27,-3.833 6.987,-5.008c2.688,-1.171 5.633,-1.754 8.813,-1.754c3.187,-0 6.125,0.583 8.829,1.754c2.696,1.175 5.021,2.833 6.971,5.008c1.95,2.146 3.466,4.759 4.55,7.788c1.075,3.004 1.612,6.371 1.612,10.033m-8.729,0c-0,-5.275 -1.183,-9.471 -3.558,-12.575c-2.363,-3.075 -5.6,-4.612 -9.675,-4.612c-4.075,-0 -7.3,1.537 -9.68,4.612c-2.375,3.104 -3.545,7.3 -3.545,12.575c-0,5.275 1.17,9.45 3.545,12.55c2.38,3.075 5.605,4.638 9.68,4.638c4.075,-0 7.312,-1.563 9.675,-4.638c2.375,-3.1 3.558,-7.275 3.558,-12.55" style="fill:#1d1d1b;fill-rule:nonzero;"/><path d="M3834.2,218.037c-6.463,-0 -12,-0.929 -16.638,-2.784c-4.642,-1.879 -8.483,-4.491 -11.525,-7.862c-3.05,-3.367 -5.3,-7.321 -6.75,-11.863c-1.466,-4.541 -2.183,-9.546 -2.183,-14.991l-0,-59.063l17.308,0l0,57.425c0,4.25 0.488,7.913 1.442,10.963c0.946,3.054 2.325,5.541 4.083,7.445c1.775,1.905 3.875,3.321 6.275,4.226c2.413,0.904 5.125,1.366 8.129,1.366c2.996,0 5.725,-0.462 8.184,-1.367c2.45,-0.904 4.566,-2.32 6.337,-4.225c1.775,-1.904 3.138,-4.391 4.088,-7.445c0.966,-3.05 1.441,-6.713 1.441,-10.963l0,-57.425l17.309,0l-0,59.063c-0,5.445 -0.75,10.45 -2.238,14.991c-1.496,4.542 -3.775,8.496 -6.825,11.863c-3.046,3.371 -6.933,5.983 -11.662,7.862c-4.725,1.855 -10.325,2.784 -16.775,2.784" style="fill:#1d1d1b;fill-rule:nonzero;"/><path d="M3892.03,148.868c3.175,-0.904 7.313,-1.758 12.413,-2.588c5.087,-0.804 10.725,-1.22 16.916,-1.22c5.821,-0 10.688,0.779 14.588,2.391c3.912,1.588 7.037,3.809 9.341,6.667c2.317,2.879 3.959,6.321 4.917,10.375c0.95,4.054 1.438,8.471 1.438,13.304l-0,40.092l-16.513,-0l0,-37.5c0,-3.834 -0.25,-7.059 -0.746,-9.742c-0.5,-2.687 -1.312,-4.883 -2.466,-6.571c-1.125,-1.658 -2.675,-2.904 -4.625,-3.683c-1.959,-0.758 -4.346,-1.15 -7.163,-1.15c-2.1,-0 -4.279,0.125 -6.55,0.417c-2.275,0.266 -3.946,0.487 -5.054,0.683l0,57.546l-16.496,-0l0,-69.021Z" style="fill:#1d1d1b;fill-rule:nonzero;"/><path d="M3989.42,125.699c-0,3.075 -1,5.541 -2.996,7.35c-2.004,1.829 -4.367,2.733 -7.096,2.733c-2.817,0 -5.233,-0.904 -7.229,-2.733c-1.992,-1.809 -2.992,-4.275 -2.992,-7.35c0,-3.2 1,-5.688 2.992,-7.521c1.996,-1.804 4.412,-2.708 7.229,-2.708c2.729,-0 5.092,0.904 7.096,2.708c1.996,1.833 2.996,4.321 2.996,7.521m-1.779,92.191l-16.496,0l-0,-71.341l16.496,-0l-0,71.341Z" style="fill:#1d1d1b;fill-rule:nonzero;"/><path d="M4031.57,143.423c5.462,0 10.05,0.684 13.775,2.05c3.725,1.342 6.712,3.271 8.937,5.713c2.225,2.466 3.825,5.446 4.771,8.937c0.954,3.517 1.429,7.346 1.429,11.546l0,43.242c-2.55,0.537 -6.387,1.196 -11.508,1.954c-5.154,0.779 -10.942,1.171 -17.404,1.171c-4.275,-0 -8.192,-0.413 -11.725,-1.221c-3.555,-0.829 -6.575,-2.146 -9.075,-3.954c-2.505,-1.829 -4.463,-4.2 -5.863,-7.104c-1.417,-2.905 -2.117,-6.496 -2.117,-10.767c0,-4.1 0.788,-7.546 2.392,-10.375c1.588,-2.808 3.738,-5.104 6.471,-6.892c2.729,-1.754 5.892,-3.05 9.492,-3.833c3.587,-0.754 7.337,-1.146 11.237,-1.146c1.825,0 3.733,0.121 5.738,0.342c2,0.246 4.137,0.612 6.412,1.171l0,-2.734c0,-1.904 -0.225,-3.733 -0.687,-5.466c-0.455,-1.713 -1.25,-3.25 -2.388,-4.567c-1.137,-1.317 -2.637,-2.346 -4.5,-3.075c-1.867,-0.708 -4.204,-1.075 -7.025,-1.075c-3.825,-0 -7.325,0.267 -10.504,0.804c-3.183,0.563 -5.771,1.196 -7.775,1.904l-2.046,-13.354c2.1,-0.733 5.133,-1.442 9.15,-2.171c3.988,-0.733 8.258,-1.1 12.813,-1.1m1.362,61.529c5.1,0 8.967,-0.295 11.6,-0.833l0,-18.258c-0.912,-0.296 -2.237,-0.563 -3.967,-0.834c-1.72,-0.266 -3.633,-0.412 -5.725,-0.412c-1.825,-0 -3.662,0.146 -5.525,0.412c-1.858,0.271 -3.545,0.784 -5.033,1.492c-1.512,0.733 -2.712,1.758 -3.625,3.075c-0.912,1.317 -1.362,2.979 -1.362,4.979c-0,3.909 1.22,6.617 3.687,8.109c2.446,1.512 5.763,2.27 9.95,2.27" style="fill:#1d1d1b;fill-rule:nonzero;"/><path d="M4111.63,217.89l0,-94.512l60.688,-0l-0,14.6l-43.5,-0l-0,23.317l38.741,-0l0,14.329l-38.741,-0l-0,27.691l46.791,0l0,14.575l-63.979,0Z" style="fill:#1d1d1b;fill-rule:nonzero;"/><path d="M4246.12,214.204c-3.183,0.829 -7.312,1.683 -12.416,2.537c-5.084,0.854 -10.684,1.296 -16.771,1.296c-5.725,0 -10.525,-0.829 -14.388,-2.467c-3.862,-1.633 -6.962,-3.904 -9.275,-6.812c-2.325,-2.904 -3.975,-6.396 -4.975,-10.425c-1.012,-4.05 -1.516,-8.471 -1.516,-13.304l-0,-39.971l16.521,-0l-0,37.383c-0,7.617 1.108,13.088 3.329,16.359c2.229,3.27 6.116,4.904 11.666,4.904c2,-0 4.113,-0.096 6.355,-0.267c2.208,-0.171 3.866,-0.417 4.97,-0.683l0,-57.696l16.5,-0l0,69.146Z" style="fill:#1d1d1b;fill-rule:nonzero;"/><path d="M4306.96,161.417c-1.362,-0.438 -3.246,-0.93 -5.666,-1.417c-2.409,-0.513 -5.213,-0.754 -8.384,-0.754c-1.825,-0 -3.75,0.171 -5.8,0.533c-2.037,0.367 -3.479,0.683 -4.304,0.979l0,57.134l-16.496,-0l0,-67.925c3.184,-1.171 7.159,-2.296 11.938,-3.346c4.775,-1.025 10.071,-1.563 15.887,-1.563c1.1,0 2.363,0.075 3.821,0.196c1.454,0.146 2.904,0.342 4.363,0.563c1.454,0.22 2.862,0.487 4.225,0.804c1.366,0.316 2.466,0.612 3.279,0.879l-2.863,13.917Z" style="fill:#1d1d1b;fill-rule:nonzero;"/><path d="M4384.97,180.39c-0,5.642 -0.813,10.767 -2.446,15.405c-1.642,4.641 -3.971,8.595 -6.967,11.866c-3,3.271 -6.616,5.834 -10.837,7.642c-4.225,1.829 -8.892,2.733 -13.988,2.733c-5.087,0 -9.729,-0.904 -13.916,-2.733c-4.184,-1.808 -7.775,-4.371 -10.771,-7.642c-3.004,-3.271 -5.342,-7.225 -7.025,-11.866c-1.679,-4.638 -2.529,-9.763 -2.529,-15.405c-0,-5.641 0.85,-10.745 2.529,-15.362c1.683,-4.588 4.046,-8.517 7.1,-11.792c3.05,-3.271 6.662,-5.783 10.837,-7.566c4.188,-1.784 8.771,-2.663 13.775,-2.663c5,0 9.621,0.879 13.85,2.663c4.225,1.783 7.85,4.295 10.834,7.566c3.016,3.275 5.354,7.204 7.029,11.792c1.687,4.617 2.525,9.721 2.525,15.362m-16.913,0c0,-7.083 -1.525,-12.725 -4.558,-16.85c-3.054,-4.15 -7.308,-6.2 -12.767,-6.2c-5.45,0 -9.704,2.05 -12.75,6.2c-3.05,4.125 -4.575,9.767 -4.575,16.85c0,7.18 1.525,12.867 4.575,17.042c3.046,4.2 7.3,6.275 12.75,6.275c5.459,0 9.713,-2.075 12.767,-6.275c3.033,-4.175 4.558,-9.862 4.558,-17.042" style="fill:#1d1d1b;fill-rule:nonzero;"/><path d="M4465.45,182.295c-0,5.466 -0.713,10.475 -2.113,15.016c-1.417,4.538 -3.437,8.446 -6.071,11.717c-2.646,3.271 -5.929,5.812 -9.887,7.642c-3.959,1.829 -8.446,2.733 -13.442,2.733c-3.362,-0 -6.454,-0.413 -9.279,-1.246c-2.808,-0.804 -5.133,-1.708 -6.946,-2.708l0,27.687l-16.517,0l0,-94.266c3.375,-0.905 7.505,-1.759 12.43,-2.592c4.912,-0.804 10.087,-1.221 15.55,-1.221c5.62,0 10.675,0.858 15.137,2.592c4.45,1.733 8.254,4.196 11.392,7.446c3.133,3.22 5.546,7.129 7.221,11.716c1.687,4.592 2.525,9.742 2.525,15.484m-16.913,0.266c0,-7.35 -1.662,-13.087 -4.975,-17.191c-3.325,-4.075 -8.662,-6.125 -16.042,-6.125c-1.537,-0 -3.15,0.07 -4.833,0.195c-1.692,0.146 -3.337,0.438 -4.975,0.9l0,40.78c1.446,1 3.388,1.925 5.8,2.804c2.396,0.854 4.975,1.271 7.7,1.271c6.004,-0 10.388,-2.025 13.163,-6.13c2.779,-4.075 4.162,-9.591 4.162,-16.504" style="fill:#1d1d1b;fill-rule:nonzero;"/><path d="M4477.72,180.927c-0,-6.279 0.921,-11.77 2.804,-16.508c1.858,-4.712 4.333,-8.642 7.421,-11.792c3.087,-3.125 6.641,-5.491 10.637,-7.104c4.009,-1.587 8.1,-2.366 12.275,-2.366c9.825,-0 17.488,3.025 22.988,9.129c5.504,6.104 8.25,15.187 8.25,27.275c-0,0.929 -0.025,1.929 -0.063,3.075c-0.046,1.15 -0.112,2.175 -0.212,3.075l-47.05,-0c0.45,5.717 2.475,10.158 6.075,13.308c3.591,3.125 8.783,4.688 15.616,4.688c3.996,-0 7.646,-0.367 10.975,-1.075c3.325,-0.734 5.938,-1.513 7.834,-2.321l2.187,13.504c-0.9,0.463 -2.162,0.925 -3.75,1.438c-1.583,0.487 -3.4,0.954 -5.45,1.345c-2.05,0.413 -4.246,0.755 -6.608,1.025c-2.379,0.267 -4.779,0.413 -7.242,0.413c-6.275,-0 -11.725,-0.925 -16.362,-2.783c-4.638,-1.88 -8.467,-4.467 -11.463,-7.788c-3.004,-3.321 -5.225,-7.225 -6.675,-11.742c-1.462,-4.491 -2.187,-9.425 -2.187,-14.795m47.879,-7.355c-0,-2.291 -0.313,-4.441 -0.954,-6.491c-0.634,-2.05 -1.575,-3.809 -2.8,-5.325c-1.221,-1.488 -2.725,-2.684 -4.5,-3.538c-1.775,-0.854 -3.888,-1.296 -6.338,-1.296c-2.562,0 -4.779,0.488 -6.687,1.442c-1.913,0.95 -3.521,2.196 -4.854,3.733c-1.309,1.563 -2.338,3.321 -3.055,5.325c-0.729,2 -1.241,4.05 -1.504,6.15l30.692,0Z" style="fill:#1d1d1b;fill-rule:nonzero;"/><path d="M4549.61,243.257c-1.191,-0 -2.837,-0.096 -4.975,-0.317c-2.137,-0.246 -4.029,-0.658 -5.662,-1.321l2.171,-13.5c2.004,0.638 4.412,0.954 7.241,0.954c3.813,0 6.5,-1.1 8.038,-3.321c1.55,-2.245 2.325,-5.591 2.325,-10.033l-0,-69.146l16.5,0l-0,69.413c-0,9.279 -2.2,16.137 -6.613,20.604c-4.412,4.446 -10.75,6.667 -19.025,6.667m27.413,-117.559c-0,3.075 -1,5.542 -2.996,7.35c-2.004,1.829 -4.367,2.734 -7.096,2.734c-2.817,-0 -5.233,-0.905 -7.217,-2.734c-2.016,-1.808 -3.016,-4.275 -3.016,-7.35c-0,-3.196 1,-5.687 3.016,-7.521c1.984,-1.804 4.4,-2.708 7.217,-2.708c2.729,0 5.092,0.904 7.096,2.708c1.996,1.834 2.996,4.325 2.996,7.521" style="fill:#1d1d1b;fill-rule:nonzero;"/><path d="M4613.31,204.389c4.362,0 7.55,-0.512 9.55,-1.562c1.995,-1.05 3,-2.834 3,-5.396c-0,-2.367 -1.075,-4.321 -3.2,-5.858c-2.138,-1.538 -5.675,-3.225 -10.575,-5.055c-3,-1.075 -5.763,-2.245 -8.246,-3.466c-2.504,-1.221 -4.667,-2.663 -6.492,-4.296c-1.812,-1.642 -3.254,-3.621 -4.304,-5.938c-1.038,-2.32 -1.563,-5.175 -1.563,-8.52c0,-6.567 2.413,-11.721 7.242,-15.505c4.808,-3.758 11.367,-5.637 19.633,-5.637c4.175,-0 8.192,0.387 12,1.146c3.817,0.783 6.692,1.537 8.592,2.271l-2.987,13.354c-1.825,-0.829 -4.15,-1.563 -6.963,-2.246c-2.829,-0.683 -6.087,-1.025 -9.829,-1.025c-3.354,-0 -6.083,0.562 -8.183,1.708c-2.088,1.125 -3.138,2.884 -3.138,5.25c0,1.171 0.213,2.221 0.621,3.125c0.417,0.904 1.117,1.759 2.112,2.538c1,0.758 2.313,1.537 3.955,2.296c1.637,0.783 3.637,1.587 6.012,2.416c3.9,1.442 7.221,2.884 9.95,4.275c2.721,1.417 4.975,3.004 6.75,4.788c1.779,1.758 3.079,3.783 3.888,6.079c0.825,2.246 1.229,4.979 1.229,8.179c-0,6.813 -2.529,11.963 -7.571,15.479c-5.046,3.492 -12.263,5.246 -21.625,5.246c-6.275,0 -11.321,-0.537 -15.138,-1.562c-3.808,-1.05 -6.5,-1.88 -8.05,-2.538l2.863,-13.771c2.467,1.004 5.392,1.954 8.804,2.859c3.413,0.929 7.3,1.366 11.663,1.366" style="fill:#1d1d1b;fill-rule:nonzero;"/><path d="M4673.46,174.38c2.087,-2.17 4.308,-4.516 6.691,-7.029c2.363,-2.491 4.676,-5.008 6.946,-7.496c2.275,-2.491 4.438,-4.908 6.475,-7.229c2.05,-2.316 3.805,-4.346 5.25,-6.079l19.513,0c-4.55,5.104 -9.35,10.379 -14.388,15.821c-5.046,5.471 -10.125,10.792 -15.208,15.971c2.721,2.271 5.583,5.029 8.587,8.254c2.996,3.221 5.909,6.662 8.734,10.3c2.816,3.637 5.45,7.275 7.908,10.912c2.458,3.642 4.508,7.009 6.146,10.084l-19.1,-0c-1.642,-2.804 -3.529,-5.759 -5.667,-8.863c-2.137,-3.1 -4.437,-6.079 -6.883,-8.983c-2.454,-2.929 -4.95,-5.663 -7.5,-8.25c-2.554,-2.613 -5.058,-4.813 -7.504,-6.642l-0,32.738l-16.496,-0l-0,-91.8l16.496,-2.709l-0,51Z" style="fill:#1d1d1b;fill-rule:nonzero;"/><path d="M4755.02,143.423c5.463,0 10.046,0.684 13.775,2.05c3.725,1.342 6.717,3.271 8.938,5.713c2.229,2.466 3.825,5.446 4.771,8.937c0.954,3.517 1.429,7.346 1.429,11.546l-0,43.242c-2.55,0.537 -6.388,1.196 -11.509,1.954c-5.154,0.779 -10.937,1.171 -17.404,1.171c-4.271,-0 -8.191,-0.413 -11.725,-1.221c-3.554,-0.829 -6.575,-2.146 -9.075,-3.954c-2.504,-1.829 -4.462,-4.2 -5.858,-7.104c-1.417,-2.905 -2.121,-6.496 -2.121,-10.767c0,-4.1 0.788,-7.546 2.392,-10.375c1.587,-2.808 3.737,-5.104 6.471,-6.892c2.729,-1.754 5.891,-3.05 9.491,-3.833c3.588,-0.754 7.338,-1.146 11.25,-1.146c1.813,0 3.725,0.121 5.725,0.342c2,0.246 4.138,0.612 6.417,1.171l-0,-2.734c-0,-1.904 -0.229,-3.733 -0.692,-5.466c-0.45,-1.713 -1.25,-3.25 -2.375,-4.567c-1.146,-1.317 -2.65,-2.346 -4.508,-3.075c-1.871,-0.708 -4.208,-1.075 -7.029,-1.075c-3.825,-0 -7.309,0.267 -10.504,0.804c-3.184,0.563 -5.771,1.196 -7.775,1.904l-2.046,-13.354c2.1,-0.733 5.133,-1.442 9.15,-2.171c3.987,-0.733 8.258,-1.1 12.812,-1.1m1.359,61.529c5.108,0 8.97,-0.295 11.608,-0.833l-0,-18.258c-0.917,-0.296 -2.242,-0.563 -3.971,-0.834c-1.721,-0.266 -3.637,-0.412 -5.725,-0.412c-1.804,-0 -3.662,0.146 -5.525,0.412c-1.858,0.271 -3.546,0.784 -5.033,1.492c-1.513,0.733 -2.709,1.758 -3.625,3.075c-0.917,1.317 -1.363,2.979 -1.363,4.979c0,3.909 1.221,6.617 3.688,8.109c2.446,1.512 5.762,2.27 9.946,2.27" style="fill:#1d1d1b;fill-rule:nonzero;"/></g></svg>